<svg xmlns="http://www.w3.org/2000/svg" viewBox="0 0 147.12 184.65"><title>Asset 1</title><g id="Layer_2" data-name="Layer 2"><g id="Layer_1-2" data-name="Layer 1"><path d="M1,50.09c-2.65,3.5,1.09,9.06,3.2,11.83C6.63,65.05,11.09,70,15.62,69.1c6.23-1.31,3.37-8,.57-11-3.71-4-9-11.14-15.14-9.27-1.84.56-1.06,3.45.8,2.89,4.32-1.31,7.93,4.29,10.71,7,1.33,1.28,3.54,3.1,3.85,5s-1.3,2.78-3,2.25c-3.08-1-5.78-4.27-7.53-6.82-1.19-1.73-3.84-5.47-2.28-7.54,1.16-1.54-1.44-3-2.59-1.51Z"/><path d="M4.22,50.13A10.93,10.93,0,0,1,12.65,45c3.27-.18,4.63,2.06,6.5,4.26,2,2.42,5.16,5.33,3.14,8.83-.62,1.09-3.86,4.84-5,5.18a1.5,1.5,0,0,0,.8,2.89c1.86-.53,2.6-2,3.85-3.32s2.65-2,3.38-3.71c1.87-4.3-.61-8.06-3.32-11.19S17.19,41.78,12.65,42c-4.72.2-8.44,2.85-11,6.64-1.09,1.6,1.51,3.1,2.59,1.51Z"/><path d="M14.42,43.5c6.25-.18,9.51-4.12,11.3-9.8.77-2.44,1-3.83,3.68-4.36,1.47-.29,3,.11,4.54-.28,3.32-.87,4.61-3.76,6.79-6.17,6.36-7,15.46-9.82,24.29-12.37,4.31-1.24,8.56-2.61,12.83-4C82.62,5,87.28,5.41,92,4.27a1.51,1.51,0,0,0,.66-2.51c-5.14-4-8.44,0-14,.62C72,3.15,65.87,4,59.34,6.24s-13.47,3.94-19.6,7a37.83,37.83,0,0,0-7.42,5.14C29.72,20.63,27.84,24,25.16,26c-1.54,1.13,0,3.73,1.51,2.59,3.85-2.82,6.31-7.09,10.26-10,5.66-4.15,12.5-5.61,19-7.92,5.53-2,11.09-4,16.92-4.94,2.77-.44,5.64,0,8.34-.75,3.19-.89,6.12-3.61,9.37-1.07l.66-2.51c-4.21,1-8.36.51-12.61,1.79S70,6,65.65,7.22c-7.53,2.17-15.34,4.28-21.81,8.9a34.58,34.58,0,0,0-7,6.74c-2.13,2.68-3.54,3.42-6.84,3.5a11.89,11.89,0,0,0-3.44.18c-2.28.75-2.67,2.58-3.28,4.69-1.4,4.81-3.17,9.12-8.88,9.28-1.93.06-1.93,3.06,0,3Z"/><path d="M25.59,56.25c.93-2.63,3.28-4.44,5.06-6.49,2-2.34,3.52-5,6.78-5.63,5.43-1,12,7.34,13.7,12.08l1.45-1.9c-7.55.7-11.34-10-18.89-11.4-1.89-.35-2.7,2.54-.8,2.89,5,.93,8.71,5.77,12,9.35,2.41,2.66,4.23,2.48,7.74,2.16A1.52,1.52,0,0,0,54,55.42c-1.42-4-4.34-6.68-7-9.88-2.39-2.91-4.78-4.89-8.76-4.71S32,43.41,29.69,46.22s-5.68,5.54-7,9.24c-.65,1.82,2.25,2.61,2.89.8Z"/><path d="M54.38,57.74C57.18,56.1,59,53.69,60.71,51A40.88,40.88,0,0,1,69,42.11a1.51,1.51,0,0,0-.3-2.36c-3.84-2-5.62-6.17-6.24-10.31-1-6.64,2.94-7.58,6.94-11,3-2.53,5.62-5.38,9-7.47A140,140,0,0,1,90.92,4.39c1.73-.85.21-3.44-1.51-2.59C84,4.47,78.2,7,73.47,10.85c-2.34,1.89-4.39,4.1-6.73,6-1.88,1.52-4.38,2.41-6.1,4.07-3,2.93-1.5,7.81-.54,11.33,1.17,4.31,3.08,8,7.13,10.09L66.93,40a43.54,43.54,0,0,0-6.39,5.91c-2.52,3.21-4,7.1-7.67,9.25a1.5,1.5,0,0,0,1.51,2.59Z"/><path d="M49.39,58.78c5.4,1.14,9.11,7.88,12.07,12.05C65.87,77,69.39,83.61,73.2,90.19,76.62,96.11,80,102.7,84.38,108c2.86,3.47,6.85,5.61,10.93,2.7,10.27-7.31-2.85-20.32-6.32-27.28-3.25-6.5-8-12-11.26-18.52C74,57.55,69.16,50.78,66.85,42.78a1.5,1.5,0,0,0-2.89.8c1.69,5.87,4.62,10.85,7.65,16.1s5.46,11.06,9.1,16.12,6.1,10.42,9.61,15.42c2,2.83,4.22,5.69,5.18,9.07,1.33,4.63-1.39,11.92-7.69,7-2.31-1.8-3.87-5.31-5.41-7.75-1.78-2.83-3.53-5.66-5.24-8.53-3.3-5.56-6.15-11.37-9.7-16.77-3.94-6-9.62-16.76-17.29-18.38-1.88-.4-2.69,2.49-.8,2.89Z"/><path d="M84,108c.23,5.24,4.19,9.41,7,13.52,4.11,6,8.25,12,12.8,17.63,5.44,6.77,11.9,12.83,15.09,21.07,2.19,5.64,3.08,12,5.94,17.36,3.85,7.21,17.63,10.66,21.69,1.61,2-4.48-1.16-7.64-4-10.78-5.35-6-8.53-14.15-12.15-21.24a168.53,168.53,0,0,0-14.31-24c-5.62-7.61-11.75-14.82-16.93-22.76-1.05-1.61-3.65-.11-2.59,1.51,9.49,14.55,21.07,27.17,29.16,42.67,3.88,7.43,7.17,15.48,11.86,22.45,1.41,2.1,3.46,3.63,4.91,5.66,4.31,6-2.12,9.23-7.32,8.63-8.63-1-9.63-10.73-11.83-17.46a50.67,50.67,0,0,0-9.58-17.55c-5.49-6.56-10.79-13.17-15.83-20.08-2-2.68-3.75-5.47-5.69-8.17C90.1,115.21,87.11,111.82,87,108c-.08-1.92-3.08-1.93-3,0Z"/></g></g></svg>