<svg xmlns="http://www.w3.org/2000/svg" viewBox="0 0 196.49 190.52"><title>Asset 2</title><g id="Layer_2" data-name="Layer 2"><g id="Layer_1-2" data-name="Layer 1"><path d="M3.46,171.32C11.53,163,17.09,152.8,24.59,144s15.7-17.23,22.56-26.79c7.48-10.43,15-20.78,23.87-30.12,8.66-9.18,15.59-19.65,24.14-28.88,1.31-1.41-.81-3.54-2.12-2.12-8.34,9-15.05,19.28-23.51,28.21a271.24,271.24,0,0,0-22.81,28.39c-7.3,10.14-15.5,19.14-23.68,28.54-7.76,8.92-13.43,19.43-21.7,27.95-1.35,1.39.77,3.51,2.12,2.12Z"/><path d="M92.6,56.92c3.74,3.07,6.95,6.66,10.42,10,3.16,3,6.62,5.7,9.73,8.8,5.7,5.67,10.57,8.42,18.66,9.25,7.88.81,16.08.57,24,.33,5.71-.17,10.79-1.55,13.06-7.23.72-1.79-2.18-2.57-2.89-.8-2.56,6.41-11.1,5-16.64,5-7.2,0-14.63.55-21.73-1-7.37-1.56-11.12-7.12-16.52-11.77S100.32,59.4,94.72,54.8c-1.48-1.22-3.61.89-2.12,2.12Z"/><path d="M92.75,57.31c4.42-1.41,7.42-5.56,10.1-9.11,3.45-4.59,7-9.16,8.81-14.68,1.6-4.93,2.13-9.38,5.29-13.58A63.14,63.14,0,0,1,127.87,8.77c2.69-2.16,8.26-6.84,12.11-5.7,3,.88,2.65,4.76,3.9,7.09s3.35,3.41,5.68,4.41A126.82,126.82,0,0,1,187.76,40c2.44,2.38,6.16,5.7,5.07,9.25-1,3.09-4.41,4.86-6.37,7.38-5.81,7.46-8.56,16.31-19,18.34-1.89.37-1.09,3.26.8,2.89,6.54-1.27,11.51-5.34,15.1-10.84,2.55-3.91,4.6-8.06,8-11.29,1.85-1.74,4.52-3.62,5-6.33.82-4.73-4.35-9.52-7.41-12.35a195.73,195.73,0,0,0-19.5-15.54,71.08,71.08,0,0,0-11.05-6.33c-4.23-2-10.59-3.1-12.42-7.82C144.5,3.39,143.67-.3,138.56,0c-9.15.57-18.35,10.85-23.53,17.5-4.16,5.35-4.51,11-7,17.19-1.55,3.82-4.2,7.1-6.62,10.41s-5.4,8-9.45,9.3c-1.83.58-1,3.48.8,2.89Z"/><path d="M125.11,27.16c-1.75,2.48-4.55,2.78-5.6,5.91a14.17,14.17,0,0,0,.4,9c2.1,5.09,9.23,7,13.68,9.31,8,4.1,15.9,9.39,24.21,12.87,3.54,1.48,8.05,2.47,11.68.69,4.05-2,4.93-6.69,4.27-10.8-1-6.09-5.12-6.62-10.31-8.2-7.83-2.38-13-9.39-19.82-13.63-4.75-3-11.37-7.23-17.21-6.76-1.91.15-1.93,3.16,0,3,4.71-.38,9.53,2.88,13.52,5.09,5.53,3.06,9.87,7.53,14.9,11.26,3.57,2.66,7.06,3.45,11.21,4.79,3.39,1.1,4.79,2.67,4.9,6.48.08,2.69-.65,5.31-3.38,6.33-3.6,1.34-8-.56-11.12-2.26-5.72-3.13-11.37-6.34-17.17-9.32-4.6-2.37-10.34-4.27-14.47-7.4-3-2.29-3.73-7.89-1.54-11,1-1.51,3.3-2.15,4.45-3.79s-1.49-3.08-2.59-1.51Z"/><path d="M.08,171.09c1.42,4.27,4.73,6.36,7.68,9.5s4.58,7.52,8.73,9.73c1.7.91,3.22-1.68,1.51-2.59-3.53-1.88-5-5.59-7.45-8.51s-6.27-5-7.58-8.94c-.61-1.82-3.5-1-2.89.8Z"/><path d="M19.19,189a6.63,6.63,0,0,1,1.53-4.79l-2.36.3c1.7,1.49,4.58,4.38,6.94,2.42,2-1.7,1.5-7.08,2.08-9.29l-1.85,1c3.17.78,7.31,3.29,9.91.09,1.48-1.83.56-4.32,1.7-6s4.12-.17,6.13-1.13a5,5,0,0,0,2.53-2.6c.14-.3.47-1.51.54-1.58.57-.57.07-.17,1.17-.38,3.9-.76,5.6,1.05,7.32-3.38.35-.9-.39-2.53,1.74-2.38.62,0,1.26,1.09,1.84,1.38.92.46,1.63.85,2.63.32,3.75-2-.33-8.79,3.81-10,3.63-1.08,5.75-.49,6.92-4.39.51-1.7.11-2.64,2.11-3.55,1.65-.75,2.09-.26,3.71.11,1.87.42,3.82.65,5.38-.73s.65-3,1.44-4.57c1.42-2.91,4.68-.14,7.18-.68,5.18-1.11,2.63-7.77,3.43-11.36l-1.85,1c3.4,1.22,9.23,4.78,11.25-.47.47-1.22-.09-2.5.19-3.7,1.15-5,2.68-3.12,5.24-2.77,1.66.22,3.43.2,4.77-1,2.14-1.89,1.18-4,5.11-4.25,1.89-.11,3.72.64,5.15-1.1,1.15-1.4.69-3.31.46-4.92-.34-2.48-.73-3.62,2.13-2.72,1.15.36,2.17,1.21,3.37,1.58a1.51,1.51,0,0,0,1.85-1,37.14,37.14,0,0,0,.13-5.1c.07-3.71.41-2.72,3.13-1.58,3.27,1.36,4.35-.44,6-2.71.44-.6-.75-1.23.4-1.79-.35.17,2.3.81,2.11.78a7.14,7.14,0,0,0,4.07-.48c2.65-1.53,1-4.56.75-7l-1.9,1.45c2.53.78,6.88,3.65,9,.46,1.61-2.41-.67-6.28-1.08-8.76-.31-1.9-3.2-1.09-2.89.8.21,1.29,1.53,3.64,1.25,4.85-.55,2.38-3.81.28-5.48-.23a1.51,1.51,0,0,0-1.9,1.45c.14,1.49,1.26,3.78-.16,4.45s-3.37-1.31-4.92-1.07c-3.76.57-1.07,5.54-4.86,4.58-2-.51-3.82-2.53-5.71-.21s-.45,6.61-.88,9.32l1.85-1c-2.93-.91-7.91-5.29-9.58,0-.81,2.59,2.26,6.36-1.15,7.2-2.35.58-4.23-1.16-6.42.8s-1,4.22-4.73,4.2c-1.76,0-3.16-1.12-5-.35s-2.64,2.77-3,4.57c-.41,2,.83,5.06-3.39,4.77-1.23-.08-3.13-1.4-4.43-1.87a1.51,1.51,0,0,0-1.85,1c-.41,1.84.7,6.57-.2,7.84-1.69,2.38-5.32-.86-7.55-.15-2.61.83-2.21,2.53-3,4.59-1.88,5.13-4.06,1.52-7.73,2.15-5,.86-3.27,7.15-6.89,8.25-4.2,1.27-6.5.3-6.82,5.35-.08,1.33.21,3.91-.48,5q1.29.54,0-.28l-.84-.66a5.37,5.37,0,0,0-4.75-.95c-2.21.76-1.83,1.91-2.34,3.67-1.39,4.75-3.78.41-6.86,2.26-1.65,1-.88,2.19-1.64,3.54-1.57,2.81-4.47.6-6.83,1.34a3.78,3.78,0,0,0-2.66,3.6c-.23,2.13.32,4.74-2.95,4.51-1.36-.09-3-1-4.33-1.33a1.53,1.53,0,0,0-1.85,1,30.69,30.69,0,0,0-.76,4.59c-.34,3.18-.19,3.63-3.25,1a1.53,1.53,0,0,0-2.36.3,11.08,11.08,0,0,0-1.94,6.3c-.08,1.93,2.92,1.93,3,0Z"/><path d="M123.78,69.21c-1.87-.18-4.35.36-4.29,2.71,0,1.8,1.67,3.34,3.08,4.24a5.19,5.19,0,0,0,5.53.37c2-1.14,2.94-3.47,1-5.18a10,10,0,0,0-6.62-2.14c-1.92.1-1.93,3.1,0,3a7.33,7.33,0,0,1,4.47,1.25c-.1-.07.21.19.25.23s0,.09,0,0c-.06.26,0-.12,0-.2,0,.26.1-.08,0,0a3.78,3.78,0,0,1-1.14.73c.33-.12-.34,0-.12,0h-.38c.28,0-.15,0-.21,0a4.85,4.85,0,0,1-.61-.2s-.5-.27-.68-.39a3.77,3.77,0,0,1-.75-.59,5.37,5.37,0,0,1-.57-.63c-.08-.12-.15-.23-.21-.35-.18-.33.1.18,0-.1s0,0,0-.13c-.09.45.14-.1-.07.3q-.22.25,0,.08-.22.16-.07.08l-.06,0,.29-.07h.32a8.17,8.17,0,0,1,.93,0,1.51,1.51,0,0,0,1.5-1.5,1.53,1.53,0,0,0-1.5-1.5Z"/><path d="M107.16,50.92c-2.32-.7-8-1.84-8.12,2.11a6,6,0,0,0,3.72,5.22c2.12.63,4.06-.93,4.91-2.77a6.59,6.59,0,0,0,.58-3.73,2.21,2.21,0,0,0-1.07-1.9,4.74,4.74,0,0,0-2.16-.29,1.5,1.5,0,0,0,0,3,3.22,3.22,0,0,1,1.18.11l-1-1a3.35,3.35,0,0,1-1,3.6c-1,.66-1.85-1.14-2.11-2-.12-.38,0,.1-.19.07s.5-.13.48-.12H103a12.47,12.47,0,0,1,3.36.61c1.85.56,2.64-2.34.8-2.89Z"/><path d="M94.83,54.08c2.24,9.24,14.42,8.78,18,.65,2.07-4.69,1.27-10.2,1.8-15.16.44-4.14,1.85-8.31,5.49-10.64,2.32-1.49,7.53-4,9.34-.68.92,1.7,3.51.19,2.59-1.51-3.7-6.87-14.54-1.15-17.57,3.66s-2.93,10.71-3.22,16.33c-.17,3.13-.38,6.8-2.73,9.18-3.6,3.64-9.57,2.53-10.82-2.62-.45-1.88-3.35-1.08-2.89.8Z"/><path d="M150.86,67.46c-8.37-.65-8.47,8.59-2.78,12.6a6.56,6.56,0,0,0,4.18,1.31c2.95-.17,5.07-2.79,8.07-2.55,3.68.29,8.07,2.64,9.88-2,.7-1.8-2.2-2.58-2.89-.8-.78,2-5.77-.19-7.39-.23-3.06-.07-5.62,3-8.5,2.6-1.92-.28-3.47-2.36-4.1-4.05-1.11-3,.67-4.07,3.54-3.85,1.93.15,1.92-2.85,0-3Z"/><path d="M150,70c6.72-.37,12.18,5.72,19.06,3.05,5.21-2,7.48-7.56,8.31-12.7s1.62-11.54-4-14.16a110.77,110.77,0,0,0-22.09-8c-1.88-.42-2.68,2.47-.8,2.89,5.89,1.32,11,3.63,16.53,5.94,2.9,1.22,5.41,1.21,6.91,4.21s1,6.25.35,9.47c-1.14,5.84-4.87,11.31-11.62,9.7-4.41-1.05-7.94-3.71-12.65-3.45-1.92.11-1.93,3.11,0,3Z"/><path d="M150,70.82a9.15,9.15,0,0,0-1.3,6.23,1.5,1.5,0,0,0,1,1,4,4,0,0,0,4.34-.78,5.25,5.25,0,0,0,1.14-3.82,7.18,7.18,0,0,0-.91-3.41,2,2,0,0,0-3.53-.2c-1.15,1.76-1,4.51-1,6.5a1.5,1.5,0,0,0,3,0,27.46,27.46,0,0,1,.19-3.61c0-.33.13-.64.2-1,0-.1.11-.58,0-.12a.71.71,0,0,1,.15-.27,1.15,1.15,0,0,1-1.17.45c-.29-.08-.24-.08-.46-.26.12.1.19.31,0-.07.08.13.34.72.17.26a6.66,6.66,0,0,1,.21.67c0,.14.16.91.11.48a7.2,7.2,0,0,1,.06.87c0,.15-.08.88,0,.46a4.65,4.65,0,0,1-.2.79c.15-.42-.29.5-.09.15a.65.65,0,0,1-.2.19c.47-.25-.06,0-.09,0,.46,0,0,0-.11,0,.47,0-.08,0-.16,0s-.16,0,0,0l-.27-.05-.59-.17,1,1a6,6,0,0,1,1-3.92c.92-1.7-1.67-3.21-2.59-1.51Z"/></g></g></svg>