<svg xmlns="http://www.w3.org/2000/svg" viewBox="0 0 129.56 103.37"><defs><style>.cls-1{fill:#fff;stroke:#ff2d2e;stroke-miterlimit:10;stroke-width:3px;}</style></defs><title>Asset 12</title><g id="Layer_2" data-name="Layer 2"><g id="Layer_1-2" data-name="Layer 1"><path class="cls-1" d="M59.05,32.78l60,.2s8,2,9,10c0,0,1,7-7,10l-25-.08s4,12-3.05,16c0,0,8,13-3.06,18,0,0,7,13-6.05,15l-31-.1-27-7.09s-16-2.05-20,.93c0,0-9.89-32,.18-54,0,0,5-3,13-2,0,0,26.1-28.91,40.11-33.87,0,0,8-9,16-.95,0,0,6,6-2,14Z"/><line class="cls-1" x1="95.99" y1="52.91" x2="78.99" y2="52.85"/><line class="cls-1" x1="92.93" y1="68.9" x2="79.93" y2="68.85"/><line class="cls-1" x1="89.87" y1="86.89" x2="76.87" y2="86.84"/><line class="cls-1" x1="48.99" y1="51.75" x2="25.98" y2="55.67"/><line class="cls-1" x1="49.93" y1="68.75" x2="28.94" y2="66.68"/><line class="cls-1" x1="51.89" y1="81.76" x2="24.9" y2="79.67"/></g></g></svg>