<svg xmlns="http://www.w3.org/2000/svg" viewBox="0 0 565.56 44.49"><defs><style>.cls-1{fill:none;stroke:#ff2d2e;stroke-linecap:round;stroke-linejoin:round;stroke-width:4px;}</style></defs><title>Asset 1</title><g id="Layer_2" data-name="Layer 2"><g id="Layer_1-2" data-name="Layer 1"><path class="cls-1" d="M2,40.88c.15.26,35.87-21.05,36-20.79,2.44,4.23,33.1,7.85,35.54,12.08.26.44,43.6-25.76,43.86-25.32C121.18,13.36,164.19,28.49,168,35c.26.44,42.76-25.28,43-24.84,2.21,3.83-14.22,28-12,31.85.26.44,63.8-37.43,64.06-37,2.47,4.27,3.67,33.18,6.14,37.46.26.44,39-23.09,39.22-22.65,2.14,3.7,30.57-.5,32.7,3.2.26.44,36.18-21.48,36.44-21,3.79,6.57,45.94,24,49.73,30.54.26.44,47.81-28.2,48.07-27.75,2.26,3.92,23.27,19.75,25.53,23.67.26.44,31.52-18.79,31.78-18.35,1.19,2.06,12.3,10.34,13.5,12.4.15.26,17.27-10.32,17.42-10.06"/></g></g></svg>