<svg xmlns="http://www.w3.org/2000/svg" viewBox="0 0 289.62 119.19"><defs><style>.cls-1{fill:#61ab20;}.cls-2{fill:#ff2d2e;}.cls-3{fill:none;stroke:#fff;stroke-miterlimit:10;stroke-width:2px;}</style></defs><title>hands</title><g id="Layer_2" data-name="Layer 2"><g id="Layer_1-2" data-name="Layer 1"><path class="cls-1" d="M194.27,42.8c-11.9,7.84-13,14.11-4,24.86-14,.36-18,5.19-15.35,19-12.41-6.57-18.31-4.17-23.47,9.11-7.84-11.9-14.11-13-24.86-4-.36-14-5.19-18-19-15.35C114.17,64,111.77,58.14,98.49,53c11.9-7.84,13-14.11,4-24.86,14-.36,18-5.19,15.35-19,12.41,6.57,18.31,4.17,23.47-9.11,7.84,11.9,14.11,13,24.86,4,.36,14,5.19,18,19,15.35C178.59,31.74,181,37.64,194.27,42.8Z"/><path class="cls-2" d="M28.36,112.22c-.65-.05-3.75-.28-7.28-.28-8.44,0-10.64,1.25-11.11,1.63l-2.2,1.79-.95-2.67a114.59,114.59,0,0,1-4.58-19C0,79.19.81,66.93,4.74,57.31L5,56.73l.52-.34a22.72,22.72,0,0,1,11.76-2.93q.68,0,1.36,0C22.7,48.65,43.91,24,56.94,18.34c1.17-1.26,5.06-5,10.21-5a12.1,12.1,0,0,1,8.29,3.57c.08.07,7.6,7.23-1.34,16.89l-10.16,11,55.38-2.18.24,0c.38.08,9.43,2.07,11,11.27.53,2.92-.4,9.32-7.8,12.44l-.33.14-22.77.89c.93,3.75,1.85,10.65-2.42,14.71,1.33,2.5,3.44,7.49,2.2,12.2a10.62,10.62,0,0,1-4.48,6.18c1.06,2.43,2.46,6.88.74,10.71-1.33,3-4.15,4.88-8.38,5.7l-.15,0-31.38,1.23Z"/><path class="cls-3" d="M28.36,112.22c-.65-.05-3.75-.28-7.28-.28-8.44,0-10.64,1.25-11.11,1.63l-2.2,1.79-.95-2.67a114.59,114.59,0,0,1-4.58-19C0,79.19.81,66.93,4.74,57.31L5,56.73l.52-.34a22.72,22.72,0,0,1,11.76-2.93q.68,0,1.36,0C22.7,48.65,43.91,24,56.94,18.34c1.17-1.26,5.06-5,10.21-5a12.1,12.1,0,0,1,8.29,3.57c.08.07,7.6,7.23-1.34,16.89l-10.16,11,55.38-2.18.24,0c.38.08,9.43,2.07,11,11.27.53,2.92-.4,9.32-7.8,12.44l-.33.14-22.77.89c.93,3.75,1.85,10.65-2.42,14.71,1.33,2.5,3.44,7.49,2.2,12.2a10.62,10.62,0,0,1-4.48,6.18c1.06,2.43,2.46,6.88.74,10.71-1.33,3-4.15,4.88-8.38,5.7l-.15,0-31.38,1.23Z"/><rect class="cls-2" x="79.96" y="63.86" width="17" height="4" transform="translate(-2.51 3.51) rotate(-2.24)"/><rect class="cls-3" x="79.96" y="63.86" width="17" height="4" transform="translate(-2.51 3.51) rotate(-2.24)"/><rect class="cls-2" x="81.59" y="79.88" width="13" height="4" transform="translate(-3.13 3.5) rotate(-2.24)"/><rect class="cls-3" x="81.59" y="79.88" width="13" height="4" transform="translate(-3.13 3.5) rotate(-2.24)"/><rect class="cls-2" x="79.29" y="97.99" width="13" height="4" transform="translate(-3.84 3.43) rotate(-2.24)"/><rect class="cls-3" x="79.29" y="97.99" width="13" height="4" transform="translate(-3.84 3.43) rotate(-2.24)"/><rect class="cls-2" x="26.86" y="66.82" width="23.35" height="4" transform="translate(-13.59 9.63) rotate(-12.12)"/><rect class="cls-3" x="26.86" y="66.82" width="23.35" height="4" transform="translate(-13.59 9.63) rotate(-12.12)"/><rect class="cls-2" x="39.08" y="72.18" width="4" height="21.1" transform="translate(-43.81 119.15) rotate(-86.81)"/><rect class="cls-3" x="39.08" y="72.18" width="4" height="21.1" transform="translate(-43.81 119.15) rotate(-86.81)"/><rect class="cls-2" x="38.59" y="82.22" width="4" height="27.07" transform="matrix(0.03, -1, 1, 0.03, -56.51, 133.01)"/><rect class="cls-3" x="38.59" y="82.22" width="4" height="27.07" transform="matrix(0.03, -1, 1, 0.03, -56.51, 133.01)"/><path class="cls-2" d="M202.51,116.95l-.15,0c-4.23-.82-7-2.74-8.38-5.7-1.72-3.82-.32-8.28.74-10.71a10.62,10.62,0,0,1-4.48-6.18c-1.24-4.71.87-9.7,2.2-12.2-4.26-4.06-3.34-11-2.42-14.71l-22.77-.89-.33-.14c-7.4-3.11-8.33-9.52-7.79-12.47,1.51-9.17,10.56-11.16,10.94-11.24l.24,0,55.38,2.18-10.16-11c-4.57-4.94-4.74-9.24-4.08-12a10.34,10.34,0,0,1,2.74-4.92,12.1,12.1,0,0,1,8.29-3.57c5.15,0,9,3.74,10.21,5,13,5.61,34.24,30.3,38.32,35.15q.69,0,1.36,0a22.72,22.72,0,0,1,11.76,2.93l.52.34.24.58c3.93,9.62,4.76,21.88,2.49,36.43a114.59,114.59,0,0,1-4.58,19l-.95,2.67-2.2-1.79c-.47-.38-2.66-1.63-11.11-1.63-3.54,0-6.63.23-7.28.28l-27.37,6Z"/><path class="cls-3" d="M202.51,116.95l-.15,0c-4.23-.82-7-2.74-8.38-5.7-1.72-3.82-.32-8.28.74-10.71a10.62,10.62,0,0,1-4.48-6.18c-1.24-4.71.87-9.7,2.2-12.2-4.26-4.06-3.34-11-2.42-14.71l-22.77-.89-.33-.14c-7.4-3.11-8.33-9.52-7.79-12.47,1.51-9.17,10.56-11.16,10.94-11.24l.24,0,55.38,2.18-10.16-11c-4.57-4.94-4.74-9.24-4.08-12a10.34,10.34,0,0,1,2.74-4.92,12.1,12.1,0,0,1,8.29-3.57c5.15,0,9,3.74,10.21,5,13,5.61,34.24,30.3,38.32,35.15q.69,0,1.36,0a22.72,22.72,0,0,1,11.76,2.93l.52.34.24.58c3.93,9.62,4.76,21.88,2.49,36.43a114.59,114.59,0,0,1-4.58,19l-.95,2.67-2.2-1.79c-.47-.38-2.66-1.63-11.11-1.63-3.54,0-6.63.23-7.28.28l-27.37,6Z"/><rect class="cls-2" x="199.17" y="57.36" width="4" height="17" transform="translate(127.46 264.28) rotate(-87.75)"/><rect class="cls-3" x="199.17" y="57.36" width="4" height="17" transform="translate(127.46 264.28) rotate(-87.75)"/><rect class="cls-2" x="199.54" y="75.38" width="4" height="13" transform="translate(111.8 280.05) rotate(-87.75)"/><rect class="cls-3" x="199.54" y="75.38" width="4" height="13" transform="translate(111.8 280.05) rotate(-87.75)"/><rect class="cls-2" x="201.83" y="93.49" width="4" height="13" transform="translate(95.91 299.73) rotate(-87.75)"/><rect class="cls-3" x="201.83" y="93.49" width="4" height="13" transform="translate(95.91 299.73) rotate(-87.75)"/><rect class="cls-2" x="249.09" y="57.15" width="4" height="23.35" transform="translate(131.1 299.87) rotate(-77.88)"/><rect class="cls-3" x="249.09" y="57.15" width="4" height="23.35" transform="translate(131.1 299.87) rotate(-77.88)"/><rect class="cls-2" x="237.99" y="80.73" width="21.1" height="4" transform="translate(-4.22 13.96) rotate(-3.19)"/><rect class="cls-3" x="237.99" y="80.73" width="21.1" height="4" transform="translate(-4.22 13.96) rotate(-3.19)"/><rect class="cls-2" x="235.49" y="93.76" width="27.07" height="4" transform="translate(-3.17 8.69) rotate(-1.99)"/><rect class="cls-3" x="235.49" y="93.76" width="27.07" height="4" transform="translate(-3.17 8.69) rotate(-1.99)"/></g></g></svg>