<?xml version="1.0" encoding="utf-8"?>
<!-- Generator: Adobe Illustrator 22.0.1, SVG Export Plug-In . SVG Version: 6.00 Build 0)  -->
<svg version="1.1" id="Layer_1" xmlns="http://www.w3.org/2000/svg" xmlns:xlink="http://www.w3.org/1999/xlink" x="0px" y="0px"
	 viewBox="0 0 129.5 103.4" style="enable-background:new 0 0 129.5 103.4;" xml:space="preserve">
<style type="text/css">
	.st0{fill:#FFFFFF;stroke:#FF2D2E;stroke-width:6;stroke-miterlimit:10;}
</style>
<title>hand_left</title>
<g id="Layer_2_1_">
	<g id="Layer_1-2">
		<g id="Layer_2-2">
			<g id="Layer_1-2-2">
				<path class="st0" d="M210.9,37.8L168.7-4.7c0,0-4.2-7.1,0.7-13.4c0,0,4.2-5.7,12-2.1L199-2.6c0,0,5.7-11.3,13.5-9.2
					c0,0,3.5-14.8,14.9-10.6c0,0,4.2-14.1,14.9-6.3l21.8,22l14.1,24.1c0,0,9.9,12.8,14.8,13.5c0,0-15.6,29.6-38.3,38.1
					c0,0-5.7-1.4-10.6-7.8c0,0-38.9,2-52.3-4.4c0,0-12,0.7-12-10.6c0,0,0-8.5,11.3-8.5L210.9,37.8z"/>
				<line class="st0" x1="199.1" y1="-2.5" x2="211" y2="9.5"/>
				<line class="st0" x1="212.5" y1="-11.7" x2="221.7" y2="-2.4"/>
				<line class="st0" x1="227.4" y1="-22.2" x2="236.6" y2="-13"/>
				<line class="st0" x1="231.5" y1="31.5" x2="250.5" y2="45"/>
				<line class="st0" x1="242.8" y1="18.8" x2="256.2" y2="35.1"/>
				<line class="st0" x1="250.6" y1="8.3" x2="268.2" y2="28.8"/>
			</g>
		</g>
	</g>
</g>
</svg>
