<svg xmlns="http://www.w3.org/2000/svg" viewBox="0 0 129.54 103.43"><defs><style>.cls-1{fill:#fff;}.cls-1,.cls-2{stroke:#ff2d2e;stroke-miterlimit:10;stroke-width:3px;}.cls-2{fill:none;}</style></defs><title>hand_right</title><g id="Layer_2" data-name="Layer 2"><g id="Layer_1-2" data-name="Layer 1"><g id="Layer_2-2" data-name="Layer 2"><g id="Layer_1-2-2" data-name="Layer 1-2"><path class="cls-1" d="M70.54,32.81l-60,.2s-8,2-9,10c0,0-1,7,7,10l25-.08s-4,12,3,16c0,0-8,13,3.06,18,0,0-7,13,6,15l31-.1,27-7.09s16-2.05,20,.93c0,0,9.89-32-.18-54,0,0-5-3-13-2,0,0-26.1-28.91-40.11-33.87,0,0-8-9-16-.95,0,0-6,6,2,14Z"/><line class="cls-2" x1="33.61" y1="52.94" x2="50.61" y2="52.88"/><line class="cls-2" x1="36.66" y1="68.93" x2="49.66" y2="68.88"/><line class="cls-2" x1="39.72" y1="86.92" x2="52.72" y2="86.87"/><line class="cls-2" x1="80.61" y1="51.78" x2="103.62" y2="55.7"/><line class="cls-2" x1="79.66" y1="68.78" x2="100.66" y2="66.71"/><line class="cls-2" x1="77.71" y1="81.79" x2="104.7" y2="79.7"/></g></g></g></g></svg>