<svg xmlns="http://www.w3.org/2000/svg" viewBox="0 0 131.63 106.84"><defs><style>.cls-1{fill:#ff2d2e;}.cls-2{fill:none;stroke:#fff;stroke-miterlimit:10;stroke-width:2px;}</style></defs><title>hand_left_together</title><g id="Layer_2" data-name="Layer 2"><g id="Layer_1-2" data-name="Layer 1"><path class="cls-1" d="M28.36,99.88c-.65-.05-3.75-.28-7.28-.28-8.44,0-10.64,1.25-11.11,1.63L7.77,103l-.95-2.67a114.59,114.59,0,0,1-4.58-19C0,66.84.81,54.58,4.74,45L5,44.39,5.49,44a22.72,22.72,0,0,1,11.76-2.93q.68,0,1.36,0C22.7,36.3,43.91,11.6,56.94,6,58.11,4.74,62,1,67.15,1a12.1,12.1,0,0,1,8.29,3.57c.08.07,7.6,7.23-1.34,16.89l-10.16,11,55.38-2.18.24,0c.38.08,9.43,2.07,11,11.27.53,2.92-.4,9.32-7.8,12.44l-.33.14-22.77.89c.93,3.75,1.85,10.65-2.42,14.71,1.33,2.5,3.44,7.49,2.2,12.2a10.62,10.62,0,0,1-4.48,6.18c1.06,2.43,2.46,6.88.74,10.71-1.33,3-4.15,4.88-8.38,5.7l-.15,0-31.38,1.23Z"/><path class="cls-2" d="M28.36,99.88c-.65-.05-3.75-.28-7.28-.28-8.44,0-10.64,1.25-11.11,1.63L7.77,103l-.95-2.67a114.59,114.59,0,0,1-4.58-19C0,66.84.81,54.58,4.74,45L5,44.39,5.49,44a22.72,22.72,0,0,1,11.76-2.93q.68,0,1.36,0C22.7,36.3,43.91,11.6,56.94,6,58.11,4.74,62,1,67.15,1a12.1,12.1,0,0,1,8.29,3.57c.08.07,7.6,7.23-1.34,16.89l-10.16,11,55.38-2.18.24,0c.38.08,9.43,2.07,11,11.27.53,2.92-.4,9.32-7.8,12.44l-.33.14-22.77.89c.93,3.75,1.85,10.65-2.42,14.71,1.33,2.5,3.44,7.49,2.2,12.2a10.62,10.62,0,0,1-4.48,6.18c1.06,2.43,2.46,6.88.74,10.71-1.33,3-4.15,4.88-8.38,5.7l-.15,0-31.38,1.23Z"/><rect class="cls-1" x="79.96" y="51.51" width="17" height="4" transform="translate(-2.02 3.5) rotate(-2.24)"/><rect class="cls-2" x="79.96" y="51.51" width="17" height="4" transform="translate(-2.02 3.5) rotate(-2.24)"/><rect class="cls-1" x="81.59" y="67.54" width="13" height="4" transform="translate(-2.65 3.49) rotate(-2.24)"/><rect class="cls-2" x="81.59" y="67.54" width="13" height="4" transform="translate(-2.65 3.49) rotate(-2.24)"/><rect class="cls-1" x="79.29" y="85.64" width="13" height="4" transform="translate(-3.36 3.42) rotate(-2.24)"/><rect class="cls-2" x="79.29" y="85.64" width="13" height="4" transform="translate(-3.36 3.42) rotate(-2.24)"/><rect class="cls-1" x="26.86" y="54.47" width="23.35" height="4" transform="translate(-11 9.35) rotate(-12.12)"/><rect class="cls-2" x="26.86" y="54.47" width="23.35" height="4" transform="translate(-11 9.35) rotate(-12.12)"/><rect class="cls-1" x="39.08" y="59.84" width="4" height="21.1" transform="translate(-31.48 107.49) rotate(-86.81)"/><rect class="cls-2" x="39.08" y="59.84" width="4" height="21.1" transform="translate(-31.48 107.49) rotate(-86.81)"/><rect class="cls-1" x="38.59" y="69.88" width="4" height="27.07" transform="matrix(0.03, -1, 1, 0.03, -44.17, 121.09)"/><rect class="cls-2" x="38.59" y="69.88" width="4" height="27.07" transform="matrix(0.03, -1, 1, 0.03, -44.17, 121.09)"/></g></g></svg>