<svg xmlns="http://www.w3.org/2000/svg" viewBox="0 0 131.63 106.84"><defs><style>.cls-1{fill:#ff2d2e;}.cls-2{fill:none;stroke:#fff;stroke-miterlimit:10;stroke-width:2px;}</style></defs><title>hand_right_together</title><g id="Layer_2" data-name="Layer 2"><g id="Layer_1-2" data-name="Layer 1"><path class="cls-1" d="M44.51,104.6l-.15,0c-4.23-.82-7-2.74-8.38-5.7-1.72-3.82-.32-8.28.74-10.71A10.62,10.62,0,0,1,32.24,82c-1.24-4.71.87-9.7,2.2-12.2-4.26-4.06-3.34-11-2.42-14.71L9.26,54.18,8.92,54C1.52,50.92.59,44.52,1.13,41.57,2.64,32.4,11.69,30.41,12.07,30.33l.24,0,55.38,2.18-10.16-11c-4.57-4.94-4.74-9.24-4.08-12a10.34,10.34,0,0,1,2.74-4.92A12.1,12.1,0,0,1,64.48,1c5.15,0,9,3.74,10.21,5,13,5.61,34.24,30.3,38.32,35.15q.69,0,1.36,0A22.72,22.72,0,0,1,126.13,44l.52.34.24.58c3.93,9.62,4.76,21.88,2.49,36.43a114.59,114.59,0,0,1-4.58,19l-.95,2.67-2.2-1.79c-.47-.38-2.66-1.63-11.11-1.63-3.54,0-6.63.23-7.28.28l-27.37,6Z"/><path class="cls-2" d="M44.51,104.6l-.15,0c-4.23-.82-7-2.74-8.38-5.7-1.72-3.82-.32-8.28.74-10.71A10.62,10.62,0,0,1,32.24,82c-1.24-4.71.87-9.7,2.2-12.2-4.26-4.06-3.34-11-2.42-14.71L9.26,54.18,8.92,54C1.52,50.92.59,44.52,1.13,41.57,2.64,32.4,11.69,30.41,12.07,30.33l.24,0,55.38,2.18-10.16-11c-4.57-4.94-4.74-9.24-4.08-12a10.34,10.34,0,0,1,2.74-4.92A12.1,12.1,0,0,1,64.48,1c5.15,0,9,3.74,10.21,5,13,5.61,34.24,30.3,38.32,35.15q.69,0,1.36,0A22.72,22.72,0,0,1,126.13,44l.52.34.24.58c3.93,9.62,4.76,21.88,2.49,36.43a114.59,114.59,0,0,1-4.58,19l-.95,2.67-2.2-1.79c-.47-.38-2.66-1.63-11.11-1.63-3.54,0-6.63.23-7.28.28l-27.37,6Z"/><rect class="cls-1" x="41.17" y="45.01" width="4" height="17" transform="translate(-11.99 94.54) rotate(-87.75)"/><rect class="cls-2" x="41.17" y="45.01" width="4" height="17" transform="translate(-11.99 94.54) rotate(-87.75)"/><rect class="cls-1" x="41.54" y="63.04" width="4" height="13" transform="translate(-27.65 110.31) rotate(-87.75)"/><rect class="cls-2" x="41.54" y="63.04" width="4" height="13" transform="translate(-27.65 110.31) rotate(-87.75)"/><rect class="cls-1" x="43.83" y="81.14" width="4" height="13" transform="translate(-43.54 129.99) rotate(-87.75)"/><rect class="cls-2" x="43.83" y="81.14" width="4" height="13" transform="translate(-43.54 129.99) rotate(-87.75)"/><rect class="cls-1" x="91.09" y="44.8" width="4" height="23.35" transform="translate(18.34 135.64) rotate(-77.88)"/><rect class="cls-2" x="91.09" y="44.8" width="4" height="23.35" transform="translate(18.34 135.64) rotate(-77.88)"/><rect class="cls-1" x="80" y="68.38" width="21.1" height="4" transform="translate(-3.78 5.15) rotate(-3.19)"/><rect class="cls-2" x="80" y="68.38" width="21.1" height="4" transform="translate(-3.78 5.15) rotate(-3.19)"/><rect class="cls-1" x="77.5" y="81.41" width="27.07" height="4" transform="translate(-2.84 3.21) rotate(-1.99)"/><rect class="cls-2" x="77.5" y="81.41" width="27.07" height="4" transform="translate(-2.84 3.21) rotate(-1.99)"/></g></g></svg>