<svg xmlns="http://www.w3.org/2000/svg" viewBox="0 0 129.54 103.43"><defs><style>.cls-1{fill:#fff;}.cls-1,.cls-2{stroke:#ff2d2e;stroke-miterlimit:10;stroke-width:3px;}.cls-2{fill:none;}</style></defs><title>hand_left</title><g id="Layer_2" data-name="Layer 2"><g id="Layer_1-2" data-name="Layer 1"><g id="Layer_2-2" data-name="Layer 2"><g id="Layer_1-2-2" data-name="Layer 1-2"><path class="cls-1" d="M59,32.81l60,.2s8,2,9,10c0,0,1,7-7,10l-25-.08s4,12-3.05,16c0,0,8,13-3.06,18,0,0,7,13-6.05,15l-31-.1-27-7.09s-16-2.05-20,.93c0,0-9.89-32,.18-54,0,0,5-3,13-2,0,0,26.1-28.91,40.11-33.87,0,0,8-9,16-.95,0,0,6,6-2,14Z"/><line class="cls-2" x1="95.94" y1="52.94" x2="78.94" y2="52.88"/><line class="cls-2" x1="92.88" y1="68.93" x2="79.88" y2="68.88"/><line class="cls-2" x1="89.82" y1="86.92" x2="76.82" y2="86.87"/><line class="cls-2" x1="48.94" y1="51.78" x2="25.93" y2="55.7"/><line class="cls-2" x1="49.88" y1="68.78" x2="28.89" y2="66.71"/><line class="cls-2" x1="51.84" y1="81.79" x2="24.85" y2="79.7"/></g></g></g></g></svg>