<svg xmlns="http://www.w3.org/2000/svg" viewBox="0 0 95.78 95.78"><defs><style>.cls-1{fill:#61ab20;}</style></defs><title>together</title><g id="Layer_2" data-name="Layer 2"><g id="Layer_1-2" data-name="Layer 1"><path class="cls-1" d="M95.78,42.8c-11.9,7.84-13,14.11-4,24.86-14,.36-18,5.19-15.35,19C64,80.1,58.14,82.5,53,95.78c-7.84-11.9-14.11-13-24.86-4-.36-14-5.19-18-19-15.35C15.68,64,13.28,58.14,0,53c11.9-7.84,13-14.11,4-24.86,14-.36,18-5.19,15.35-19C31.74,15.68,37.64,13.28,42.8,0c7.84,11.9,14.11,13,24.86,4,.36,14,5.19,18,19,15.35C80.1,31.74,82.5,37.64,95.78,42.8Z"/></g></g></svg>