<?xml version="1.0" encoding="utf-8"?>
<!-- Generator: Adobe Illustrator 20.1.0, SVG Export Plug-In . SVG Version: 6.00 Build 0)  -->
<svg version="1.1" id="Layer_1" xmlns="http://www.w3.org/2000/svg" xmlns:xlink="http://www.w3.org/1999/xlink" x="0px" y="0px"
	 viewBox="0 0 10.5 10.5" style="enable-background:new 0 0 10.5 10.5;" xml:space="preserve">
<style type="text/css">
	.st0{fill:#FFFFFF;}
	.st1{fill:none;stroke:#000000;stroke-width:0.2;stroke-miterlimit:10;}
</style>
<g>
	<path class="st0" d="M10.5,7.1l0.2-4.5L9.5,2.4L7.6,2.9V2.5L7.3,2.6l1.1-1.3l1.1-0.8l-4,1L4.8,2.2L2.7,1.4c0,0-1.1-0.1-1.9,1.3
		c0,0-0.7,1.5,0.2,2.3l2.2,1.1l0.1,3.3l0.3-1l0.9-1.3v0.4l0.2-0.1l0.4,1.6l1.2,0.5l3.4-1.5L8.7,7.7L7.2,6.5l0.4-0.2V5.9l1.8,0.8
		L10.5,7.1z M5.6,6.2c0,0-1.2,0.1-1-1.5c0,0,0.3-1.1,0.8-1.2c0,0,1.1-0.4,1.3,1C6.7,4.5,6.7,6,5.6,6.2z"/>
</g>
<polygon class="st1" points="4.5,3.5 7.6,2.6 7.6,6.3 4.6,7.5 "/>
<polyline class="st1" points="4.8,3.4 4.9,2.2 5.7,1.5 9.5,0.5 8.4,1.3 7.2,2.7 "/>
<polyline class="st1" points="7.6,2.9 9.5,2.4 10.7,2.5 10.5,7.1 9.4,6.7 7.6,5.9 "/>
<polyline class="st1" points="4.8,7.4 5.2,9.1 6.4,9.5 9.9,8.1 8.7,7.7 7.2,6.5 "/>
<polyline class="st1" points="4.5,7 3.7,8.4 3.4,9.4 3.2,4.5 3.6,3.9 4.5,3.9 "/>
<line class="st1" x1="3.6" y1="3.9" x2="3.7" y2="8.4"/>
<path class="st1" d="M3.2,6.1L1,5C0.7,4.7,0.6,4.2,0.6,3.8c0-0.8,0.3-1.4,0.9-2c0.7-0.5,1.2-0.4,1.2-0.4l2.1,0.8l3.6-0.9"/>
<line class="st1" x1="9.5" y1="2.4" x2="9.4" y2="6.7"/>
<line class="st1" x1="5.2" y1="9.1" x2="8.7" y2="7.7"/>
<path class="st1" d="M4.5,4.7c0.2-1.1,1.1-1.8,1.9-1.6c0.8,0.2,1.3,1.2,1.1,2.2C7.3,6.4,6.5,7.1,5.6,7C4.8,6.8,4.3,5.8,4.5,4.7z"/>
<ellipse transform="matrix(0.2095 -0.9778 0.9778 0.2095 -0.2653 9.5834)" class="st1" cx="5.8" cy="5" rx="1.7" ry="1.3"/>
<ellipse transform="matrix(0.2095 -0.9778 0.9778 0.2095 -0.3005 9.2771)" class="st1" cx="5.6" cy="4.8" rx="1.4" ry="1"/>
<path class="st1" d="M3,1.5c0,0-2.7,0.8-1.7,3.6"/>
</svg>
