<?xml version="1.0" encoding="utf-8"?>
<!-- Generator: Adobe Illustrator 21.0.0, SVG Export Plug-In . SVG Version: 6.00 Build 0)  -->
<svg version="1.1" id="Layer_1" xmlns="http://www.w3.org/2000/svg" xmlns:xlink="http://www.w3.org/1999/xlink" x="0px" y="0px"
	 viewBox="0 0 10 10" style="enable-background:new 0 0 10 10;" xml:space="preserve">
<style type="text/css">
	.st0{fill:#848484;}
</style>
<g>
	<path class="st0" d="M0,0v10h10V0H0z M7.1,7.8C6.8,7.9,6.6,8,6.4,8.1C6.1,8.1,5.9,8.2,5.6,8.2c-0.3,0-0.6,0-0.8-0.1
		C4.6,8,4.4,7.9,4.2,7.7C4.1,7.6,4,7.4,3.9,7.3C3.8,7.1,3.8,6.9,3.8,6.6V4.3H3.1V3.4C3.3,3.3,3.6,3.2,3.7,3c0.2-0.2,0.3-0.3,0.4-0.6
		C4.3,2.2,4.4,2,4.4,1.6h0.9v1.7h1.5v1H5.3V6c0,0.4,0,0.6,0.1,0.7c0,0.1,0.1,0.2,0.2,0.3c0.1,0.1,0.3,0.1,0.5,0.1
		c0.3,0,0.7-0.1,1-0.3V7.8z"/>
</g>
</svg>
