<?xml version="1.0" encoding="utf-8"?>
<!-- Generator: Adobe Illustrator 21.0.0, SVG Export Plug-In . SVG Version: 6.00 Build 0)  -->
<svg version="1.1" id="Layer_1" xmlns="http://www.w3.org/2000/svg" xmlns:xlink="http://www.w3.org/1999/xlink" x="0px" y="0px"
	 viewBox="0 0 100 100" style="enable-background:new 0 0 100 100;" xml:space="preserve">
<style type="text/css">
	.st0{fill:#AFACAC;}
</style>
<title>favicons</title>
<path class="st0" d="M92.3,26.8c-3.2,1.4-6.5,2.3-10,2.7c3.6-2.2,6.3-5.6,7.6-9.6c-3.4,2-7.1,3.4-11,4.2c-6.6-7-17.6-7.3-24.6-0.7
	C49.9,27.7,48,34,49.4,40c-14-0.7-26.9-7.3-35.7-18.2C9,29.8,11.4,39.9,19,45c-2.8-0.1-5.4-0.8-7.9-2.2v0.2c0,8.2,5.8,15.4,13.9,17
	c-1.5,0.4-3,0.6-4.6,0.6c-1.1,0-2.2-0.1-3.3-0.3c2.3,7.1,8.8,11.9,16.2,12.1c-6.1,4.8-13.7,7.4-21.5,7.4c-1.4,0-2.8-0.1-4.1-0.2
	c7.9,5.1,17.2,7.8,26.6,7.8C66.2,87.4,83.7,61,83.7,38c0-0.8,0-1.5,0-2.2C87,33.3,90,30.3,92.3,26.8z"/>
</svg>
