<?xml version="1.0" encoding="utf-8"?>
<!-- Generator: Adobe Illustrator 21.0.0, SVG Export Plug-In . SVG Version: 6.00 Build 0)  -->
<svg version="1.1" id="Layer_1" xmlns="http://www.w3.org/2000/svg" xmlns:xlink="http://www.w3.org/1999/xlink" x="0px" y="0px"
	 viewBox="0 0 100 100" style="enable-background:new 0 0 100 100;" xml:space="preserve">
<style type="text/css">
	.st0{fill:#AFACAC;}
</style>
<title>favicons</title>
<path class="st0" d="M53.2,8.2v21.7h20.3v13.5H53.2v22c0,5,0.3,8.2,0.8,9.6c0.6,1.4,1.6,2.6,3,3.4c2,1.1,4.2,1.7,6.5,1.7
	c4.7-0.1,9.2-1.6,13-4.2v13.6c-3.2,1.6-6.5,2.8-10,3.6c-3.2,0.7-6.4,1-9.6,1c-3.5,0.1-7-0.4-10.4-1.5c-2.8-0.9-5.4-2.3-7.7-4.2
	c-1.9-1.6-3.4-3.6-4.4-5.8c-0.9-2.9-1.4-6-1.2-9v-30h-9.5V31.2c3.2-1,6.1-2.6,8.7-4.7c2.4-2,4.3-4.6,5.8-7.4c1.6-3.4,2.6-7.1,3-10.9
	H53.2z"/>
</svg>
