<?xml version="1.0" encoding="utf-8"?>
<!-- Generator: Adobe Illustrator 20.1.0, SVG Export Plug-In . SVG Version: 6.00 Build 0)  -->
<svg version="1.1" id="Layer_1" xmlns="http://www.w3.org/2000/svg" xmlns:xlink="http://www.w3.org/1999/xlink" x="0px" y="0px"
	 viewBox="0 0 40 30" style="enable-background:new 0 0 40 30;" xml:space="preserve">
<style type="text/css">
	.st0{fill:none;stroke:#001FFF;stroke-width:0.4369;stroke-miterlimit:10;}
</style>
<title>logo</title>
<g>
	<path class="st0" d="M16,10.6c0,0-1.6-2.7-4.2-3.4C10.1,6.9,8.3,7,6.7,7.7c0,0-3.5,1.3-2.5,6.1c0,0,1,5.9,5.8,7.7
		c0,0,2.4,0.9,5.7-0.3c0,0,2.1-0.8,2.3-3.9c0-0.5,0-0.9-0.1-1.4l-3.8-0.6c0,0,0.4,2.1-0.6,2.7c-0.8,0.6-1.9,0.7-2.8,0.1
		c0,0-1.1-0.4-2.1-3.3c0,0-1.2-2.9,0.3-4c0,0,2.1-1.4,3.8,1.2L16,10.6z"/>
	<path class="st0" d="M18.7,8.3c0,0-1.6-2.7-4.2-3.4C12.7,4.5,11,4.7,9.4,5.4c0,0-3.5,1.3-2.5,6.1c0,0,1,5.9,5.8,7.7
		c0,0,2.4,0.9,5.7-0.3c0,0,2.1-0.8,2.3-3.9c0-0.5,0-0.9-0.1-1.4L16.8,13c0,0,0.4,2.1-0.6,2.7c-0.8,0.6-1.9,0.7-2.8,0.1
		c0,0-1.1-0.4-2.1-3.3c0,0-1.2-2.9,0.3-4c0,0,2.1-1.4,3.8,1.2L18.7,8.3z"/>
	<line class="st0" x1="16" y1="10.6" x2="18.7" y2="8.3"/>
	<line class="st0" x1="15.4" y1="9.6" x2="12.8" y2="12"/>
	<line class="st0" x1="16.8" y1="13" x2="14.1" y2="15.3"/>
	<line class="st0" x1="20.6" y1="13.6" x2="17.9" y2="15.9"/>
	<line class="st0" x1="8.6" y1="5.8" x2="5.3" y2="8.7"/>
	<line class="st0" x1="19.1" y1="18.4" x2="16.2" y2="20.9"/>
	<path class="st0" d="M26.2,13.8l3.6-0.8c0,0-0.9-2.2-2.6-2.9c0,0-1-0.7-3-0.5c-0.8,0.1-1.6,0.2-2.3,0.4c-0.9,0.2-1.7,0.7-2.3,1.4
		c-0.4,0.6-0.6,1.3-0.6,2c0,1,0.4,2.1,1.1,2.9c0.6,0.7,1.4,1.2,2.3,1.5c1,0.3,2.1,0.5,3.1,0.6c0.6,0,1.2,0.1,1.8,0.3
		c0,0,1.2,0.3,1.3,1.5c0.1,0.6-0.4,1.2-1,1.3c-0.8,0.3-1.6,0.1-2.2-0.4c0,0-0.6-0.3-1.2-1.6l-3.6,0.9c0.4,0.9,0.9,1.7,1.6,2.4
		c0,0,1.2,1.3,2.4,1.5c0,0,1.7,0.5,4.4-0.1c1-0.2,1.8-0.7,2.5-1.4c0.8-1,1.1-2.2,0.8-3.4c-0.3-1.6-1.3-3-2.8-3.7
		c0,0-1.1-0.7-3.6-0.9l-1.8-0.2c0,0-1.1,0-1.4-0.7c-0.3-0.5-0.1-1,0.4-1.3c0,0,0,0,0.1,0c0.6-0.2,1.3-0.2,1.9,0
		C25,12.5,25.5,12.6,26.2,13.8z"/>
	<path class="st0" d="M28.8,11.6l3.6-0.8c0,0-0.9-2.2-2.6-2.9c0,0-1-0.7-3-0.5c-0.8,0.1-1.6,0.2-2.3,0.4c-0.9,0.2-1.7,0.7-2.3,1.4
		c-0.4,0.6-0.6,1.3-0.6,2c0,1,0.4,2.1,1.1,2.9c0.6,0.7,1.4,1.3,2.3,1.5c1,0.3,2.1,0.5,3.1,0.6c0.6,0,1.2,0.1,1.8,0.3
		c0,0,1.2,0.3,1.3,1.5c0.1,0.6-0.4,1.2-1,1.3c-0.8,0.3-1.6,0.1-2.2-0.4c0,0-0.6-0.3-1.2-1.6L23.2,18c0.4,0.9,0.9,1.7,1.6,2.4
		c0,0,1.2,1.3,2.4,1.5c0,0,1.7,0.5,4.4-0.1c1-0.2,1.8-0.7,2.5-1.4c0.8-1,1.1-2.2,0.8-3.4c-0.3-1.6-1.3-3-2.8-3.7
		c0,0-1.1-0.7-3.6-0.9l-1.8-0.2c0,0-1.1,0-1.4-0.7c-0.3-0.5-0.1-1,0.4-1.3c0,0,0,0,0.1,0c0.6-0.2,1.3-0.2,1.9,0
		C27.6,10.3,28.2,10.4,28.8,11.6z"/>
	<path class="st0" d="M22.8,8.4"/>
	<line class="st0" x1="22.6" y1="8.7" x2="19.8" y2="11"/>
	<line class="st0" x1="28.8" y1="11.6" x2="26.2" y2="13.8"/>
	<line class="st0" x1="32.5" y1="10.8" x2="29.8" y2="13"/>
	<line class="st0" x1="23.2" y1="18" x2="20.5" y2="20.2"/>
	<line class="st0" x1="26.8" y1="17.1" x2="24.2" y2="19.3"/>
	<line class="st0" x1="33.5" y1="21" x2="31.4" y2="22.7"/>
</g>
</svg>
