<?xml version="1.0" encoding="utf-8"?>
<!-- Generator: Adobe Illustrator 21.0.0, SVG Export Plug-In . SVG Version: 6.00 Build 0)  -->
<svg version="1.1" id="Layer_1" xmlns="http://www.w3.org/2000/svg" xmlns:xlink="http://www.w3.org/1999/xlink" x="0px" y="0px"
	 viewBox="0 0 10.5 10.5" style="enable-background:new 0 0 10.5 10.5;" xml:space="preserve">
<style type="text/css">
	.st0{fill:#FFFFFF;}
	.st1{fill:none;stroke:#000000;stroke-width:0.1647;stroke-miterlimit:10;}
</style>
<g>
	<g>
		<polygon class="st0" points="4.9,1.2 0.9,5.8 0.7,7.1 1,6.9 1.1,7.2 1.3,7.2 1.2,7.5 2.3,7.2 6.4,2.4 6.3,2.3 6.9,1.7 5.7,0.5 
			4.9,1.2 		"/>
	</g>
	<g>
		<polygon class="st1" points="2.4,7.2 0.7,7.6 0.8,5.8 4.9,1.2 6.4,2.4 		"/>
		<polyline class="st1" points="4.9,1.2 5.6,0.5 6.9,1.6 6.3,2.3 		"/>
		<polyline class="st1" points="0.8,5.8 1.5,6 1.6,6.3 2.4,6.5 2.4,7.2 		"/>
		<line class="st1" x1="4.7" y1="1.4" x2="6.2" y2="2.6"/>
		<line class="st1" x1="2.4" y1="6.5" x2="5.7" y2="2.6"/>
		<line class="st1" x1="1.5" y1="6" x2="5" y2="1.9"/>
		<polygon class="st1" points="0.7,7.1 1,6.9 1.1,7.2 1.3,7.2 1.2,7.4 0.7,7.6 		"/>
		<line class="st1" x1="4.5" y1="1.6" x2="6.1" y2="2.9"/>
	</g>
</g>
</svg>
