<?xml version="1.0" encoding="utf-8"?>
<!-- Generator: Adobe Illustrator 21.0.0, SVG Export Plug-In . SVG Version: 6.00 Build 0)  -->
<svg version="1.1" id="Layer_1" xmlns="http://www.w3.org/2000/svg" xmlns:xlink="http://www.w3.org/1999/xlink" x="0px" y="0px"
	 viewBox="0 0 11.8 12.8" style="enable-background:new 0 0 11.8 12.8;" xml:space="preserve">
<style type="text/css">
	.st0{fill:#FFFFFF;}
	.st1{fill:none;stroke:#000000;stroke-width:0.2495;stroke-miterlimit:10;}
</style>
<g>
	<g>
		<path class="st0" d="M8.3,2.8L7.7,4L6.4,3.4L5.7,2.7L5.6,1.1L5.2,0.4H4.7l-1,4v0.1L3.2,5.7L2,9.7L4.6,10l1.7,1.1l0.2,1L7.1,12
			l0.7-2.3l1.1-1.4L9.6,6l0.2-2.5L8.3,2.8z M8.4,4.3l0.2-0.5l0.5,0.5l0.1,0.4L8.4,4.3z"/>
	</g>
	<g>
		<line class="st1" x1="6.3" y1="11.1" x2="4.5" y2="10.1"/>
		<g>
			<polyline class="st1" points="3.9,4.7 3.2,5.7 2,9.8 5,10.1 			"/>
			<polyline class="st1" points="4.5,6.4 4.1,5.2 3.8,4.5 4.9,0.6 5.5,0.6 5.4,2.2 5.5,3.8 6.4,4 7.2,5.2 8,3.7 8.4,2.8 10,3.6 
				9.9,4.7 9.6,6.2 8.9,8.4 7.9,9.8 7.2,12 6.7,12.2 5.8,10 4.9,9.4 			"/>
			<polyline class="st1" points="7.9,3.9 6.5,3.3 5.8,2.7 5.6,1.2 5.5,0.7 			"/>
			<polygon class="st1" points="8.1,5.2 8.6,4.3 8.9,3.8 9.3,4.3 9.4,5.3 9.1,6.2 			"/>
			<line class="st1" x1="8.6" y1="4.3" x2="9.3" y2="4.6"/>
		</g>
	</g>
</g>
</svg>
