<?xml version="1.0" encoding="utf-8"?>
<!-- Generator: Adobe Illustrator 21.0.0, SVG Export Plug-In . SVG Version: 6.00 Build 0)  -->
<svg version="1.1" id="Layer_1" xmlns="http://www.w3.org/2000/svg" xmlns:xlink="http://www.w3.org/1999/xlink" x="0px" y="0px"
	 viewBox="0 0 91.6 15.2" style="enable-background:new 0 0 91.6 15.2;" xml:space="preserve">
<title>designers</title>
<g id="Layer_2">
	<g id="Layer_1-2">
		<g>
			<path d="M2.4,0.1h4.2L6.2,2.4H4.5L3.9,6h1.4L4.9,8.4H3.5l-1,6.6H0L2.4,0.1z"/>
			<path d="M11.4,0.1l-0.4,2.3H9.3L8.7,6h1.5L9.8,8.4H8.3l-0.7,4.3h1.8L9.1,15H4.8L7.2,0.1H11.4z"/>
			<path d="M13.1,12.3h-0.8L11.7,15H9.6l3.6-14.9h3.1L15.2,15h-2.4L13.1,12.3z M13.9,4.5l-1.2,5.6h0.6L13.9,4.5z"/>
			<path d="M18,2.4h-1.1l0.3-2.3h4.7l-0.4,2.3h-1.1l-2,12.6H16L18,2.4z"/>
			<path d="M23,15.2c-2,0-2.6-1.2-2.4-2.6l2-12.4h2.5l-2,12.3c0,0.3,0,0.4,0.2,0.4s0.3-0.1,0.3-0.4l1.9-12.3h2.5l-2,12.4
				c-0.3,1.5-1,2.6-2.8,2.6H23z"/>
			<path d="M26.4,15l2.4-14.9h3.6c0.8-0.1,1.4,0.5,1.5,1.3c0,0.2,0,0.4-0.1,0.6l-0.6,3.5c0,0.7-0.5,1.3-1.1,1.5
				c0.6,0.3,0.8,0.9,0.7,1.5L32,14.3c-0.1,0.2-0.1,0.5,0,0.7l0,0h-2.4c-0.1-0.2-0.1-0.5-0.1-0.7l0.9-5.5c0-0.2,0-0.3-0.2-0.3H30
				L28.9,15H26.4z M30.3,6.3h0.2c0.2,0,0.3-0.1,0.3-0.4l0.6-3.6c0-0.3,0-0.4-0.2-0.4H31L30.3,6.3z"/>
			<path d="M39.1,0.1l-0.4,2.3H37L36.4,6h1.5l-0.4,2.4H36l-0.7,4.3h1.8L36.8,15h-4.3l2.4-14.9H39.1z"/>
			<path d="M39.8,0.1h3.4c1.3,0,2,0.7,1.8,2.3l-1.6,10.2c-0.3,1.7-0.9,2.4-2.1,2.4h-3.8L39.8,0.1z M40.2,12.9h0.2
				c0.2,0,0.3,0,0.4-0.5l1.6-9.8c0.1-0.3,0-0.5-0.2-0.5H42L40.2,12.9z"/>
			<path d="M47.8,0.1h3.4c1.3,0,2,0.7,1.8,2.3l-1.6,10.2c-0.3,1.7-0.9,2.4-2.1,2.4h-3.8L47.8,0.1z M48.2,12.9h0.2
				c0.2,0,0.3,0,0.4-0.5l1.6-9.8c0.1-0.3,0-0.5-0.2-0.5H50L48.2,12.9z"/>
			<path d="M58.2,0.1l-0.4,2.3h-1.8L55.5,6H57l-0.4,2.4h-1.5l-0.7,4.3h1.8L55.9,15h-4.3L54,0.1H58.2z"/>
			<path d="M59.1,15.2c-1.7,0-2.5-0.9-2.3-2.5L57.5,9h2.4l-0.6,3.7c0,0.3,0,0.4,0.2,0.4s0.3-0.1,0.3-0.4l0.5-2.9
				c0.1-0.4,0-0.8-0.3-1.1l-0.8-1.1c-0.7-0.8-1.1-1.8-0.9-2.9l0.4-2.5c0.1-1.3,1.1-2.3,2.4-2.2c0.1,0,0.1,0,0.2,0h0.6
				c1.7,0,2.4,0.9,2.2,2l-0.5,3.4h-2.3l0.5-3.1c0-0.2,0-0.3-0.2-0.3S61.2,2,61.1,2.2l-0.4,2.5c-0.1,0.3,0,0.7,0.3,0.9l0.8,1.1
				c1,1.2,1.2,1.8,1.1,3l-0.5,2.9c-0.3,1.6-1,2.5-2.7,2.5L59.1,15.2z"/>
			<path d="M65.2,15h-2.5l2.4-14.9h2.5L65.2,15z"/>
			<path d="M67.9,15.2c-1.3,0-1.8-1.1-1.6-2.7l1.6-9.9C68.1,1.1,68.7,0,70.7,0H71c2,0,2.6,1.2,2.3,2.5l-0.5,3.2h-2.4L71,2.5
				c0-0.3,0-0.4-0.2-0.4s-0.3,0.1-0.3,0.4l-1.7,10.1c0,0.3,0.1,0.5,0.3,0.5s0.4-0.1,0.4-0.4l0.7-4.5h-0.5L70,6.3h2.8L71.4,15h-1.7
				c0-0.3,0-0.6-0.1-0.9c-0.3,0.6-1,1-1.7,1.1H67.9z"/>
			<path d="M77,0.1l-0.3,8.1l1.3-8.1h2L77.6,15h-2.3l0.3-9l-1.4,9h-2.1l2.4-14.9H77z"/>
			<path d="M84.9,0.1l-0.4,2.3h-1.8L82.2,6h1.5l-0.4,2.4h-1.5l-0.7,4.3h1.8L82.5,15h-4.3l2.4-14.9H84.9z"/>
			<path d="M83.2,15l2.4-14.9h3.6c0.8-0.1,1.4,0.5,1.5,1.3c0,0.2,0,0.4-0.1,0.6l-0.6,3.5c0,0.7-0.5,1.3-1.1,1.5
				c0.6,0.3,0.8,0.9,0.7,1.5l-0.9,5.8c-0.1,0.2-0.1,0.4,0,0.7V15h-2.4c-0.1-0.2-0.1-0.5-0.1-0.7l0.9-5.5c0-0.2,0-0.3-0.2-0.3h-0.2
				l-1,6.5L83.2,15z M87,6.4h0.2c0.2,0,0.3-0.1,0.3-0.4l0.6-3.6c0-0.3,0-0.4-0.2-0.4h-0.2L87,6.4z"/>
		</g>
	</g>
</g>
</svg>
