<svg id="Layer_1" data-name="Layer 1" xmlns="http://www.w3.org/2000/svg" viewBox="0 0 213 26.04">
  <title>efficiency</title>
  <g>
    <path d="M188.16,188.85l-.82,5.24h-4.93l-.68,4.32h4l-.85,5.37h-4l-.78,5h5.13l-.85,5.34H173.78l4-25.29Z" transform="translate(-173.78 -188.51)"/>
    <path d="M200.33,188.85l-.85,5.24h-5l-.68,4.28h3.88l-.88,5.37h-3.88l-1.63,10.4h-5.44l4-25.29Z" transform="translate(-173.78 -188.51)"/>
    <path d="M212.3,188.85l-.85,5.24h-5l-.68,4.28h3.88l-.88,5.37h-3.88l-1.63,10.4h-5.44l4-25.29Z" transform="translate(-173.78 -188.51)"/>
    <path d="M215.23,214.15h-5.44l4-25.29h5.44Z" transform="translate(-173.78 -188.51)"/>
    <path d="M226.14,203.13h5.41l-.82,5.17c-.44,3.13-1.94,6.22-6.26,6.22h-1c-4.73,0-6.12-2.89-5.58-6.73L220,194.87c.61-3.77,2.21-6.36,6.56-6.36h1c4.59,0,5.92,2.65,5.37,5.95l-.65,4.08h-5.41l.65-3.91c.1-.85-.07-1.26-.78-1.26s-.88.41-1,1.26l-2.18,13.6c-.1.78.14,1.22.82,1.22s.85-.51,1-1.33Z" transform="translate(-173.78 -188.51)"/>
    <path d="M236.85,214.15h-5.44l4-25.29h5.44Z" transform="translate(-173.78 -188.51)"/>
    <path d="M253,188.85l-.82,5.24h-4.93l-.68,4.32h4l-.85,5.37h-4l-.78,5H250l-.85,5.34H238.62l4-25.29Z" transform="translate(-173.78 -188.51)"/>
    <path d="M260,188.85l.85,12.44,2-12.44h4.69l-4,25.29h-4.79l-1.12-13.43-2.14,13.43h-4.73l4-25.29Z" transform="translate(-173.78 -188.51)"/>
    <path d="M274.35,203.13h5.41l-.82,5.17c-.44,3.13-1.94,6.22-6.26,6.22h-1c-4.73,0-6.12-2.89-5.58-6.73l2.07-12.92c.61-3.77,2.21-6.36,6.56-6.36h1c4.59,0,5.92,2.65,5.37,5.95l-.65,4.08h-5.41l.65-3.91c.1-.85-.07-1.26-.78-1.26s-.88.41-1,1.26l-2.18,13.6c-.1.78.14,1.22.82,1.22s.85-.51,1-1.33Z" transform="translate(-173.78 -188.51)"/>
    <path d="M289.11,204.46l-1.5,9.69h-5.47l1.53-9.62-1.46-15.67h5.3l0,8.4,2.65-8.4h5Z" transform="translate(-173.78 -188.51)"/>
    <path d="M303.93,210.44h-2.52l-.92,3.71h-4.83l7.14-25.29h6.73L309,214.15h-5.27Zm.27-5,.37-7.68-1.9,7.68Z" transform="translate(-173.78 -188.51)"/>
    <path d="M319.33,188.85l.85,12.44,2-12.44h4.69l-4,25.29H318l-1.12-13.43-2.14,13.43h-4.73l4-25.29Z" transform="translate(-173.78 -188.51)"/>
    <path d="M328.58,188.85H336c3.16,0,5.13,1.67,4.49,5.71l-2.18,13.67c-.65,4-2,5.92-5.3,5.92h-8.47Zm2.18,20.43h.78c.92,0,1.05-.37,1.29-1.56l2-12.75c.14-.92,0-1.43-.75-1.43h-.82Z" transform="translate(-173.78 -188.51)"/>
    <path d="M347.35,188.85H353l-3,19c-.1.85.14,1.29.75,1.29s.92-.44,1.05-1.29l3-19h5.64l-3,19c-.68,4.25-2.58,6.7-6.56,6.7h-1c-4.18,0-6.15-2.58-5.51-6.7Z" transform="translate(-173.78 -188.51)"/>
    <path d="M364.07,214.49c-3.74,0-5.88-2.11-5.34-5.88l.61-3.81h5.34l-.54,3.5c-.14.92.1,1.39.75,1.39s1-.51,1.12-1.5l.14-.85c.27-1.39,0-2.11-1.09-3.43l-1.63-2.11c-2.07-2.52-2.72-4.62-2.28-7.07l.17-1.05c.54-3.4,2.35-5.17,6.15-5.17h1.22c4.08,0,5.58,2.11,5,5.27l-.44,2.82h-5.2l.41-2.62c.1-.68-.07-1.09-.75-1.09s-.78.37-.88,1.05l-.1.78c-.17,1.09,0,1.56.88,2.75l1.73,2.18c2.28,2.92,3.09,4.83,2.72,7.38l-.2,1.29c-.65,4-2.52,6.15-6.56,6.15Z" transform="translate(-173.78 -188.51)"/>
    <path d="M386.79,188.85l-.82,5.24H381l-.68,4.32h4l-.85,5.37h-4l-.78,5h5.13l-.85,5.34H372.4l4-25.29Z" transform="translate(-173.78 -188.51)"/>
  </g>
</svg>
