<svg xmlns="http://www.w3.org/2000/svg" viewBox="0 0 251.85 20.16">
  <title>isabella</title>
  <g id="Layer_2" data-name="Layer 2">
    <g id="Layer_1-2" data-name="Layer 1">
      <g>
        <path d="M2.79,16.37H0V0H2.79Z"/>
        <path d="M5.81,16.55c-1.41,0-2.31-.59-2.31-2V11.68H5.9v2.75c0,.2.09.29.24.29s.24-.09.24-.29V12.26a.77.77,0,0,0-.4-.79l-1.17-.79a2.53,2.53,0,0,1-1.25-2.4V6.43C3.56,5,4.36,4.36,6,4.36h.59c1.41,0,2.27.48,2.27,1.8v2.4H6.49V6.29c0-.2-.07-.31-.22-.31S6,6.1,6,6.29V8.1a.71.71,0,0,0,.35.7l1.21.81a2.68,2.68,0,0,1,1.34,2.51V14.3c0,1.5-.95,2.25-2.46,2.25Z"/>
        <path d="M9.57,11.2a1.74,1.74,0,0,1,1.1-1.78c.46-.22,1.45-.62,1.74-.73s.2-.11.2-.31v-2c0-.2-.09-.29-.24-.29h0c-.15,0-.24.09-.24.29V8.63H9.66V6.36c0-1.43,1-2,2.55-2h.29c1.69,0,2.73.48,2.73,2v7.75a.12.12,0,0,0,.13.13h.2v2.16H13.29c-.44,0-.66-.33-.66-1A1.94,1.94,0,0,1,11,16.48h0a1.45,1.45,0,0,1-1.36-1.61Zm3-.86a.73.73,0,0,0-.46.79v3.19c0,.2.09.31.24.31s.22-.15.22-.31Z"/>
        <path d="M18.85,0V5.54a2.17,2.17,0,0,1,1.72-1.08h.09c1,0,1.45.81,1.45,1.85v8.21a1.83,1.83,0,0,1-1.63,2h0a2.09,2.09,0,0,1-1.83-1.21,7.42,7.42,0,0,0-.15,1.08H16.15V0Zm.51,14.26V6.71c0-.2,0-.35-.24-.35s-.26.2-.26.35v7.53c0,.18,0,.37.24.37S19.36,14.46,19.36,14.26Z"/>
        <path d="M28.56,14.08A2.3,2.3,0,0,1,26,16.55h-.53c-1.67,0-2.64-.79-2.64-2.55V7a2.37,2.37,0,0,1,2.64-2.6H26a2.29,2.29,0,0,1,2.55,2.55v3.72H25.48v3.7c0,.24.09.35.26.35s.26-.11.26-.35v-3.1h2.55Zm-3.08-5H26V6.45c0-.33,0-.42-.26-.42s-.26.13-.26.42Z"/>
        <path d="M32,16.37H29.26V0H32Z"/>
        <path d="M35.4,16.37H32.69V0H35.4Z"/>
        <path d="M36.08,11.2a1.74,1.74,0,0,1,1.1-1.78c.46-.22,1.45-.62,1.74-.73s.2-.11.2-.31v-2c0-.2-.09-.29-.24-.29h0c-.15,0-.24.09-.24.29V8.63H36.17V6.36c0-1.43,1-2,2.55-2H39c1.69,0,2.73.48,2.73,2v7.75a.12.12,0,0,0,.13.13h.2v2.16H39.8c-.44,0-.66-.33-.66-1a1.94,1.94,0,0,1-1.65,1.08h0a1.45,1.45,0,0,1-1.36-1.61Zm3-.86a.73.73,0,0,0-.46.79v3.19c0,.2.09.31.24.31s.22-.15.22-.31Z"/>
        <path d="M47.52,16.37H44.72V0h2.79Z"/>
        <path d="M50.53,16.55c-1.41,0-2.31-.59-2.31-2V11.68h2.4v2.75c0,.2.09.29.24.29s.24-.09.24-.29V12.26a.77.77,0,0,0-.4-.79l-1.17-.79a2.53,2.53,0,0,1-1.25-2.4V6.43c0-1.39.79-2.07,2.4-2.07h.59c1.41,0,2.27.48,2.27,1.8v2.4H51.21V6.29c0-.2-.07-.31-.22-.31s-.24.11-.24.31V8.1a.71.71,0,0,0,.35.7l1.21.81a2.68,2.68,0,0,1,1.34,2.51V14.3c0,1.5-.95,2.25-2.46,2.25Z"/>
        <path d="M54.34,0H57V5.52a2.17,2.17,0,0,1,1.76-1.1h.09A1.41,1.41,0,0,1,60.32,6V16.37H57.59V6.82c0-.2,0-.37-.29-.37s-.26.15-.26.4v9.53H54.34Z"/>
        <path d="M63.75,4.22H61V1.67h2.71Zm0,12.15H61V4.53h2.71Z"/>
        <path d="M70.46,0V16.37H67.78v-.92a2.14,2.14,0,0,1-1.65,1.08h0c-1,0-1.61-.9-1.61-2V6.34c0-1.08.62-1.89,1.47-1.89H66a2.11,2.11,0,0,1,1.72,1V0ZM67.76,14.21V6.78c0-.24,0-.4-.26-.4s-.26.18-.26.37v7.46c0,.2,0,.37.26.37S67.76,14.41,67.76,14.21Z"/>
        <path d="M71.14,11.2a1.74,1.74,0,0,1,1.1-1.78c.46-.22,1.45-.62,1.74-.73s.2-.11.2-.31v-2c0-.2-.09-.29-.24-.29h0c-.15,0-.24.09-.24.29V8.63H71.23V6.36c0-1.43,1-2,2.55-2h.29c1.69,0,2.73.48,2.73,2v7.75a.12.12,0,0,0,.13.13h.2v2.16H74.86c-.44,0-.66-.33-.66-1a1.94,1.94,0,0,1-1.65,1.08h0a1.45,1.45,0,0,1-1.36-1.61Zm3-.86a.73.73,0,0,0-.46.79v3.19c0,.2.09.31.24.31s.22-.15.22-.31Z"/>
        <path d="M79.55,16.37l1.12-8.6L79.61,0h2.84l.4,5.94L83.22,0h2.66l-1,7.77,1.19,8.6H83.27L82.76,9.9l-.48,6.47Z"/>
        <path d="M89.84,2.51H88.59V0h5.26V2.51H92.59V16.37H89.84Z"/>
        <path d="M93.56,11.2a1.74,1.74,0,0,1,1.1-1.78c.46-.22,1.45-.62,1.74-.73s.2-.11.2-.31v-2c0-.2-.09-.29-.24-.29h0c-.15,0-.24.09-.24.29V8.63H93.65V6.36c0-1.43,1-2,2.55-2h.29c1.69,0,2.73.48,2.73,2v7.75a.12.12,0,0,0,.13.13h.2v2.16H97.28c-.44,0-.66-.33-.66-1A1.94,1.94,0,0,1,95,16.48h0a1.45,1.45,0,0,1-1.36-1.61Zm3-.86a.73.73,0,0,0-.46.79v3.19c0,.2.09.31.24.31s.22-.15.22-.31Z"/>
        <path d="M100.14,16.37V4.53h2.66v1a2.12,2.12,0,0,1,1.72-1.14h.11A1.35,1.35,0,0,1,106,5.52a2.19,2.19,0,0,1,1.78-1.1h.11A1.45,1.45,0,0,1,109.29,6V16.37h-2.75V6.82c0-.24,0-.35-.22-.35s-.26.15-.26.35v9.55h-2.73V6.82c0-.24-.09-.35-.24-.35s-.24.11-.24.35v9.55Z"/>
        <path d="M110,16.37V4.53h2.66v1a2.12,2.12,0,0,1,1.72-1.14h.11a1.35,1.35,0,0,1,1.36,1.1,2.19,2.19,0,0,1,1.78-1.1h.11A1.45,1.45,0,0,1,119.17,6V16.37h-2.75V6.82c0-.24,0-.35-.22-.35s-.26.15-.26.35v9.55h-2.73V6.82c0-.24-.09-.35-.24-.35s-.24.11-.24.35v9.55Z"/>
        <path d="M120.2,17.85H121c.15,0,.22-.09.22-.24s0-.35,0-.51a6,6,0,0,0-.09-.92L119.57,4.53h2.68l.4,7,.29-7h2.64L123.72,18.9A1.19,1.19,0,0,1,122.47,20H120.2Z"/>
        <path d="M128.15,0h2.79V6.36h.59V0h2.77V16.37h-2.77V9.24h-.59v7.13h-2.79Z"/>
        <path d="M137.76,4.22h-2.71V1.67h2.71Zm0,12.15h-2.71V4.53h2.71Z"/>
        <path d="M141.19,16.37h-2.71V0h2.71Z"/>
        <path d="M147.9,0V16.37h-2.68v-.92a2.14,2.14,0,0,1-1.65,1.08h0c-1,0-1.61-.9-1.61-2V6.34c0-1.08.62-1.89,1.47-1.89h.09a2.11,2.11,0,0,1,1.72,1V0ZM145.2,14.21V6.78c0-.24,0-.4-.26-.4s-.26.18-.26.37v7.46c0,.2,0,.37.26.37S145.2,14.41,145.2,14.21Z"/>
        <path d="M151.33,4.22h-2.71V1.67h2.71Zm0,12.15h-2.71V4.53h2.71Z"/>
        <path d="M154.74,20.16c-1.87,0-2.55-.81-2.55-1.85V16.66h2.64V18c0,.2.09.29.24.29s.26-.11.26-.31V15.47a2.23,2.23,0,0,1-1.65,1c-.95,0-1.63-.68-1.63-1.89V6.31c0-1,.48-1.87,1.52-1.87h.09a2.28,2.28,0,0,1,1.69,1V4.53H158V18c0,1.39-.9,2.2-2.66,2.2Zm.59-5.88V6.73c0-.18,0-.35-.26-.35s-.26.18-.26.35v7.55c0,.18,0,.35.26.35S155.34,14.46,155.34,14.28Z"/>
        <path d="M164.49,14.08a2.3,2.3,0,0,1-2.55,2.46h-.53c-1.67,0-2.64-.79-2.64-2.55V7a2.37,2.37,0,0,1,2.64-2.6h.53a2.29,2.29,0,0,1,2.55,2.55v3.72h-3.08v3.7c0,.24.09.35.26.35s.26-.11.26-.35v-3.1h2.55Zm-3.08-5h.53V6.45c0-.33,0-.42-.26-.42s-.26.13-.26.42Z"/>
        <path d="M167.9,16.37h-2.71V4.53h2.66v1a2,2,0,0,1,1.54-1.1h.15a1.07,1.07,0,0,1,1.12,1.17V9.9h-2.38V6.69c0-.18-.07-.26-.2-.26s-.2.09-.2.26Z"/>
        <path d="M173.18,16.37l1.12-8.6L173.24,0h2.84l.4,5.94L176.85,0h2.66l-1,7.77,1.19,8.6H176.9l-.51-6.47-.48,6.47Z"/>
        <path d="M185.52,13.42h-.95l-.15,2.95H182L183.38,0h3.52l1.47,16.37h-2.71Zm-.46-8.63L184.73,11h.66Z"/>
        <path d="M191.59,16.37h-2.71V0h2.71Z"/>
        <path d="M195,20.16c-1.87,0-2.55-.81-2.55-1.85V16.66h2.64V18c0,.2.09.29.24.29s.26-.11.26-.31V15.47a2.23,2.23,0,0,1-1.65,1c-.95,0-1.63-.68-1.63-1.89V6.31c0-1,.48-1.87,1.52-1.87h.09a2.28,2.28,0,0,1,1.69,1V4.53h2.68V18c0,1.39-.9,2.2-2.66,2.2Zm.59-5.88V6.73c0-.18,0-.35-.26-.35s-.26.18-.26.35v7.55c0,.18,0,.35.26.35S195.6,14.46,195.6,14.28Z"/>
        <path d="M199,11.2a1.74,1.74,0,0,1,1.1-1.78c.46-.22,1.45-.62,1.74-.73s.2-.11.2-.31v-2c0-.2-.09-.29-.24-.29h0c-.15,0-.24.09-.24.29V8.63h-2.44V6.36c0-1.43,1-2,2.55-2h.29c1.69,0,2.73.48,2.73,2v7.75a.12.12,0,0,0,.13.13h.2v2.16H202.7c-.44,0-.66-.33-.66-1a1.94,1.94,0,0,1-1.65,1.08h0A1.45,1.45,0,0,1,199,14.87Zm3-.86a.73.73,0,0,0-.46.79v3.19c0,.2.09.31.24.31s.22-.15.22-.31Z"/>
        <path d="M211.19,14.08a2.3,2.3,0,0,1-2.55,2.46h-.53c-1.67,0-2.64-.79-2.64-2.55V7a2.37,2.37,0,0,1,2.64-2.6h.53a2.29,2.29,0,0,1,2.55,2.55v3.72h-3.08v3.7c0,.24.09.35.26.35s.26-.11.26-.35v-3.1h2.55Zm-3.08-5h.53V6.45c0-.33,0-.42-.26-.42s-.26.13-.26.42Z"/>
        <path d="M211.9,16.37V4.53h2.66v1a2.12,2.12,0,0,1,1.72-1.14h.11a1.35,1.35,0,0,1,1.36,1.1,2.19,2.19,0,0,1,1.78-1.1h.11A1.45,1.45,0,0,1,221,6V16.37H218.3V6.82c0-.24,0-.35-.22-.35s-.26.15-.26.35v9.55h-2.73V6.82c0-.24-.09-.35-.24-.35s-.24.11-.24.35v9.55Z"/>
        <path d="M221.73,11.2a1.74,1.74,0,0,1,1.1-1.78c.46-.22,1.45-.62,1.74-.73s.2-.11.2-.31v-2c0-.2-.09-.29-.24-.29h0c-.15,0-.24.09-.24.29V8.63h-2.44V6.36c0-1.43,1-2,2.55-2h.29c1.69,0,2.73.48,2.73,2v7.75a.12.12,0,0,0,.13.13h.2v2.16h-2.27c-.44,0-.66-.33-.66-1a1.94,1.94,0,0,1-1.65,1.08h0a1.45,1.45,0,0,1-1.36-1.61Zm3-.86a.73.73,0,0,0-.46.79v3.19c0,.2.09.31.24.31s.22-.15.22-.31Z"/>
        <path d="M229.76,16.37a1,1,0,0,1-.95-1.08V6.73H228V4.53h.84V.75h2.71V4.53h.79v2.2h-.79v7.13c0,.18.09.26.24.26h.55v2.24Z"/>
        <path d="M235.68,16.37H233V4.53h2.66v1a2,2,0,0,1,1.54-1.1h.15a1.07,1.07,0,0,1,1.12,1.17V9.9h-2.38V6.69c0-.18-.07-.26-.2-.26s-.2.09-.2.26Z"/>
        <path d="M241.91,16.55c-1.85,0-2.77-1-2.77-2.88V7.22a2.52,2.52,0,0,1,2.79-2.86h.44c1.85,0,2.77.95,2.77,2.86v6.45a2.55,2.55,0,0,1-2.79,2.88Zm.51-2.44V6.76c0-.24,0-.42-.29-.42s-.26.18-.26.42V14.1q0,.4.26.4C242.32,14.5,242.41,14.37,242.41,14.1Z"/>
        <path d="M245.86,4.53h2.66v1a2.2,2.2,0,0,1,1.8-1.14h.11A1.41,1.41,0,0,1,251.85,6V16.37h-2.73V6.82c0-.2,0-.37-.29-.37s-.26.15-.26.4v9.53h-2.71Z"/>
      </g>
    </g>
  </g>
</svg>
