<svg id="Layer_1" data-name="Layer 1" xmlns="http://www.w3.org/2000/svg" viewBox="0 0 92.82 87.24">
  <title>isabella</title>
  <g id="Layer_2" data-name="Layer 2">
    <g id="Layer_1-2" data-name="Layer 1-2">
      <g>
        <path d="M2.46,15H0L2.38.14H4.84Z" transform="translate(0 0.02)"/>
        <path d="M5.76,15.16c-1.74,0-2.5-.94-2.26-2.46L4.1,9H6.5l-.6,3.7c0,.26,0,.38.24.38s.26-.14.32-.44l.46-2.86a1.15,1.15,0,0,0-.34-1.1L5.76,7.62a3.43,3.43,0,0,1-.92-2.88l.4-2.52A2.33,2.33,0,0,1,7.66,0l.22,0h.56c1.7,0,2.36.88,2.18,2l-.54,3.36H7.74l.5-3.12c0-.22,0-.34-.22-.34s-.24.12-.28.34l-.4,2.5a1,1,0,0,0,.26.9l.84,1.08c1,1.22,1.24,1.84,1.08,3l-.46,2.9c-.26,1.6-1,2.5-2.72,2.5Z" transform="translate(0 0.02)"/>
        <path d="M12.64,12.34H11.8L11.24,15H9.1L12.66.14h3.12L14.72,15H12.36Zm.78-7.82-1.16,5.64h.6Z" transform="translate(0 0.02)"/>
        <path d="M17.56.14H21.1c1.06,0,1.74.64,1.52,1.94l-.54,3.28a1.7,1.7,0,0,1-1.2,1.54,1.47,1.47,0,0,1,.86,1.74l-.66,4.14C20.84,14.3,20.32,15,19,15H15.18Zm1.18,8-.8,5h.26c.24,0,.28-.1.34-.36l.68-4.18c.06-.34,0-.44-.28-.44ZM19.7,2,19,6.26h.22c.18,0,.3-.12.34-.36l.56-3.48c.06-.32,0-.4-.26-.4Z" transform="translate(0 0.02)"/>
        <path d="M28,.14l-.4,2.28H25.84L25.26,6h1.48l-.38,2.4H24.88l-.68,4.3H26L25.64,15H21.38L23.76.14Z" transform="translate(0 0.02)"/>
        <path d="M31.12.14l-2,12.52H30.7L30.32,15h-4L28.68.14Z" transform="translate(0 0.02)"/>
        <path d="M35.76.14l-2,12.52h1.58L35,15H31L33.32.14Z" transform="translate(0 0.02)"/>
        <path d="M38.94,12.34H38.1L37.54,15H35.4L39,.14h3.12L41,15H38.66Zm.78-7.82-1.16,5.64h.6Z" transform="translate(0 0.02)"/>
        <path d="M45.76,15H43.3L45.68.14h2.46Z" transform="translate(0 0.02)"/>
        <path d="M49.06,15.16c-1.74,0-2.5-.94-2.26-2.46L47.4,9h2.4l-.6,3.74c0,.26,0,.38.24.38s.26-.14.32-.44l.46-2.86a1.15,1.15,0,0,0-.34-1.1l-.82-1.06a3.42,3.42,0,0,1-.92-2.88l.4-2.52A2.33,2.33,0,0,1,50.92,0l.26,0h.56c1.7,0,2.36.88,2.18,2l-.54,3.36H51l.5-3.12c0-.22,0-.34-.22-.34S51,2,51,2.24l-.4,2.5a1,1,0,0,0,.26.9l.84,1.08c1,1.22,1.24,1.84,1.08,3l-.46,2.9c-.26,1.6-1,2.5-2.72,2.5Z" transform="translate(0 0.02)"/>
        <path d="M55,.14h2.44l-.92,5.78h.54L58,.14h2.46L58.08,15H55.64l1-6.48H56.1L55.1,15H52.64Z" transform="translate(0 0.02)"/>
        <path d="M61.24,15H58.78L61.16.14h2.46Z" transform="translate(0 0.02)"/>
        <path d="M64.32.14h3.36c1.26,0,2,.74,1.76,2.26L67.8,12.64C67.54,14.3,66.86,15,65.72,15H61.94Zm.4,12.78h.22c.22,0,.32,0,.4-.52L66.9,2.64c.06-.26,0-.46-.24-.46h-.22Z" transform="translate(0 0.02)"/>
        <path d="M71.38,12.34h-.84L70,15H67.84L71.4.14h3.12L73.46,15H71.1Zm.78-7.82L71,10.16h.6Z" transform="translate(0 0.02)"/>
        <path d="M75.59,15.45l5.93-1.3,4.27-2.56,1.14,2-3,1.5,3.26-1,1.19,2.06-5.19,1-5,2.94-1.17-2,3.34-1.65-3.66,1.1Z" transform="translate(0 0.02)"/>
        <g>
          <path d="M80.48,25.42v-.84L77.8,24V21.88l14.88,3.56v3.12L77.8,27.5V25.14Zm7.82.78L82.66,25v.6Z" transform="translate(0 0.02)"/>
          <path d="M92.68,32.78l-12.52-2v1.58L77.8,32V28l14.88,2.38Z" transform="translate(0 0.02)"/>
          <path d="M77.66,34.48c0-1.34,1.14-1.84,2.66-1.6l9.86,1.58c1.52.22,2.64.86,2.64,2.8v.34c0,2-1.18,2.56-2.5,2.34l-3.22-.52V37l3.24.52c.26,0,.38,0,.38-.24s-.14-.26-.4-.32L80.2,35.38c-.32,0-.48.06-.48.28s.14.36.44.42l4.48.72v-.52l1.92.32v2.84L77.8,38V36.38a4.64,4.64,0,0,0,.94-.1,2.16,2.16,0,0,1-1.08-1.72Z" transform="translate(0 0.02)"/>
          <path d="M80.48,42v-.8l-2.68-.56V38.5l14.88,3.56v3.12L77.8,44.12V41.76Zm7.82.78-5.64-1.16v.6Z" transform="translate(0 0.02)"/>
          <path d="M92.68,51.16,90.4,50.8V49l-3.62-.58V49.9l-2.36-.38V48.08l-4.3-.68v1.82l-2.32-.38V44.58L92.68,47Z" transform="translate(0 0.02)"/>
          <path d="M92.68,51.88v2.76L85.46,54l7.22,1.54v2.8L77.8,55.94V53.86l8.32,1.34L77.8,53.14v-.86l8.32.58L77.8,51.54v-2Z" transform="translate(0 0.02)"/>
          <path d="M80.48,59.94V59.1l-2.68-.56V56.4L92.68,60v3.12L77.8,62V59.66Zm7.82.78-5.64-1.16v.6Z" transform="translate(0 0.02)"/>
          <path d="M90.4,64.8V63.7l2.28.36v4.66l-2.28-.36V67.24l-12.6-2V62.8Z" transform="translate(0 0.02)"/>
          <path d="M77.8,67l14.88,2.38V73a1.4,1.4,0,0,1-1.82,1.44l-3.5-.56a1.74,1.74,0,0,1-1.56-1.12,1.32,1.32,0,0,1-1.52.66l-5.76-.92a1.11,1.11,0,0,0-.66,0H77.8V70.1a.91.91,0,0,1,.68-.08L84,70.9c.22,0,.34,0,.34-.24V70.5l-6.54-1Zm8.66,3.84v.22q0,.27.36.3l3.6.58c.26,0,.38,0,.38-.22v-.18Z" transform="translate(0 0.02)"/>
          <path d="M80.56,79.16c-1.9-.3-2.9-1.14-2.9-2.82V76c0-1.92,1.14-2.72,3.06-2.42L89.8,75c1.86.32,3,1,3,2.84v.38c0,2-1.24,2.72-3,2.42Zm9.62-1c.28,0,.42,0,.42-.26s-.18-.24-.42-.3L80.3,76c-.24,0-.36,0-.36.24s.12.28.38.32Z" transform="translate(0 0.02)"/>
          <path d="M92.68,84.28l-8.12-.34,8.12,1.28v2L77.8,84.88V82.62l9,.28-9-1.42V79.42L92.68,81.8Z" transform="translate(0 0.02)"/>
        </g>
      </g>
    </g>
  </g>
</svg>
