<svg xmlns="http://www.w3.org/2000/svg" viewBox="0 0 131.11 104.08"><defs><style>.cls-1{fill:#fff;stroke:#ff2d2e;stroke-miterlimit:10;stroke-width:4px;}</style></defs><title>Hand</title><g id="Layer_2" data-name="Layer 2"><g id="Layer_1-2" data-name="Layer 1"><g id="Layer_2-2" data-name="Layer 2"><g id="Layer_1-2-2" data-name="Layer 1-2"><g id="Layer_2-2-2" data-name="Layer 2-2"><g id="Layer_1-2-2-2" data-name="Layer 1-2-2"><path class="cls-1" d="M46,70.79,3.69,28.23s-4.24-7.08.71-13.44c0,0,4.24-5.66,12-2.12L34,30.4s5.66-11.31,13.47-9.15c0,0,3.54-14.85,14.89-10.57,0,0,4.25-14.14,14.89-6.33l21.85,22,14.08,24.11s9.86,12.76,14.8,13.48c0,0-15.64,29.63-38.32,38.06,0,0-5.65-1.41-10.6-7.78,0,0-38.9,2-52.31-4.41,0,0-12,.71-12-10.64,0,0,0-8.49,11.31-8.49Z"/><line class="cls-1" x1="34.09" y1="30.44" x2="46.07" y2="42.5"/><line class="cls-1" x1="47.56" y1="21.3" x2="56.72" y2="30.52"/><line class="cls-1" x1="62.45" y1="10.74" x2="71.6" y2="19.97"/><line class="cls-1" x1="66.5" y1="64.49" x2="85.55" y2="77.99"/><line class="cls-1" x1="77.86" y1="51.81" x2="91.24" y2="68.11"/><line class="cls-1" x1="85.67" y1="41.22" x2="103.28" y2="61.79"/></g></g></g></g></g></g></svg>