<svg xmlns="http://www.w3.org/2000/svg" viewBox="0 0 133.65 106.13"><defs><style>.cls-1{fill:#fff;stroke:#ff2d2e;stroke-miterlimit:10;stroke-width:6px;}</style></defs><title>Hand_thicc</title><g id="Layer_2" data-name="Layer 2"><g id="Layer_1-2" data-name="Layer 1"><g id="Layer_2-2" data-name="Layer 2"><g id="Layer_1-2-2" data-name="Layer 1-2"><g id="Layer_2-2-2" data-name="Layer 2-2"><g id="Layer_1-2-2-2" data-name="Layer 1-2-2"><path class="cls-1" d="M47,71.79,4.69,29.23S.45,22.15,5.4,15.79c0,0,4.24-5.66,12-2.12L35,31.4s5.66-11.31,13.47-9.15c0,0,3.54-14.85,14.89-10.57,0,0,4.25-14.14,14.89-6.33l21.85,22,14.08,24.11s9.86,12.76,14.8,13.48c0,0-15.64,29.63-38.32,38.06,0,0-5.65-1.41-10.6-7.78,0,0-38.9,2-52.31-4.41,0,0-12,.71-12-10.64,0,0,0-8.49,11.31-8.49Z"/><line class="cls-1" x1="35.09" y1="31.44" x2="47.07" y2="43.5"/><line class="cls-1" x1="48.56" y1="22.3" x2="57.72" y2="31.52"/><line class="cls-1" x1="63.45" y1="11.74" x2="72.6" y2="20.97"/><line class="cls-1" x1="67.5" y1="65.49" x2="86.55" y2="78.99"/><line class="cls-1" x1="78.86" y1="52.81" x2="92.24" y2="69.11"/><line class="cls-1" x1="86.67" y1="42.22" x2="104.28" y2="62.79"/></g></g></g></g></g></g></svg>