<svg xmlns="http://www.w3.org/2000/svg" viewBox="0 0 95.94 55.97"><defs><style>.cls-1{fill:#fff;}.cls-1,.cls-2,.cls-3{stroke:#000;stroke-miterlimit:10;stroke-width:0.44px;}.cls-2{fill:none;}.cls-3{fill:#c77174;}</style></defs><title>letter_closed</title><g id="Layer_2" data-name="Layer 2"><g id="Layer_1-2" data-name="Layer 1"><g id="Layer_2-2" data-name="Layer 2"><g id="Layer_1-2-2" data-name="Layer 1-2"><rect class="cls-1" x="0.22" y="0.22" width="95.5" height="55.52"/><line class="cls-2" x1="54.51" y1="31.88" x2="95.72" y2="55.75"/><polyline class="cls-2" points="95.72 0.44 47.94 36.8 0.22 0.44"/><line class="cls-2" x1="0.22" y1="55.75" x2="41.4" y2="31.9"/><path class="cls-3" d="M54.44,22.53a2.7,2.7,0,0,0,0-.77,3.24,3.24,0,0,0-3-2.59C50,19.07,48.7,20.4,48,21.35c-.64-.84-1.75-2.08-3-2.22a3.22,3.22,0,0,0-3.49,2.93v.23a2.52,2.52,0,0,0,.92,1.78l5.49,4.81,5.61-4.75A2.56,2.56,0,0,0,54.44,22.53Z"/></g></g></g></g></svg>