<svg xmlns="http://www.w3.org/2000/svg" viewBox="0 0 408.78 572.69"><defs><style>.cls-1,.cls-3{fill:none;}.cls-1,.cls-2,.cls-3{stroke:#000;stroke-miterlimit:10;}.cls-1{stroke-width:1.9px;}.cls-2{fill:#fff;}.cls-2,.cls-3{stroke-width:1.18px;}</style></defs><title>letter_text</title><g id="Layer_2" data-name="Layer 2"><g id="Layer_1-2" data-name="Layer 1"><path class="cls-1" d="M232,243.3a11.51,11.51,0,0,1,0,3.3c-.9,5.69-6.2,10.6-12.84,11.05-6.28.43-11.71-5.26-14.75-9.28-2.72,3.6-7.47,8.88-12.82,9.4-7.94.77-14.65-5.71-14.9-12.57q0-.46,0-.91a10.75,10.75,0,0,1,3.92-7.5l23.51-20.57,24,20.29A10.92,10.92,0,0,1,232,243.3Z"/><polygon class="cls-2" points="407.69 335.88 204.21 179.79 1.09 336.29 127.85 500.77 295.58 498.07 407.69 335.88"/><rect class="cls-2" x="13.1" y="0.59" width="382.59" height="466.47"/><polyline class="cls-2" points="408.2 336.07 204.42 454.07 0.59 336.07 0.59 572.1 408.2 572.1 408.2 336.07 408.2 572.1"/><polyline class="cls-3" points="408.2 572.1 204.42 454.07 0.59 572.1"/></g></g></svg>