<svg xmlns="http://www.w3.org/2000/svg" viewBox="0 0 39.63 39.63"><defs><style>.cls-1{fill:#c77174;}.cls-2{fill:#fff;}</style></defs><title>New</title><g id="Layer_2" data-name="Layer 2"><g id="Layer_1-2" data-name="Layer 1"><circle class="cls-1" cx="19.81" cy="19.81" r="19.81"/><path class="cls-2" d="M14.11,14.39V24.47h-1.7L8.28,17.24v7.23H6.7V14.39H8.4l4.13,7.26V14.39Z"/><path class="cls-2" d="M22.66,21.26H17.52a1.82,1.82,0,0,0,1.8,2A2.09,2.09,0,0,0,21.22,22l1.28.5a3.18,3.18,0,0,1-3.18,2c-2.39,0-3.38-2-3.38-3.74s1-3.74,3.38-3.74a3.31,3.31,0,0,1,3.34,3.51ZM17.55,20h3.53a1.74,1.74,0,0,0-1.76-1.58A1.76,1.76,0,0,0,17.55,20Z"/><path class="cls-2" d="M33.39,17.21l-2.3,7.26H29.72l-1.31-5.13L27.1,24.47H25.73l-2.3-7.26H25l1.4,5.3,1.28-5.3h1.44l1.28,5.3,1.4-5.3Z"/></g></g></svg>