<svg xmlns="http://www.w3.org/2000/svg" viewBox="0 0 215.36 207.44"><defs><style>.cls-1{fill:none;}.cls-1,.cls-2,.cls-3{stroke:#000;stroke-miterlimit:10;}.cls-2{fill:#fff;}.cls-3{fill:#c77174;}</style></defs><title>open_letter</title><g id="Layer_2" data-name="Layer 2"><g id="Layer_1-2" data-name="Layer 1"><path class="cls-1" d="M122.22,34a6.05,6.05,0,0,1,0,1.73,7.27,7.27,0,0,1-6.75,5.81c-3.3.23-6.16-2.76-7.76-4.88-1.43,1.89-3.93,4.67-6.74,4.94A7.23,7.23,0,0,1,93.1,35q0-.24,0-.48a5.66,5.66,0,0,1,2.06-3.94l12.36-10.82,12.6,10.67A5.74,5.74,0,0,1,122.22,34Z"/><polygon class="cls-2" points="214.59 82.72 107.58 0.63 0.77 82.93 67.42 169.43 155.63 168.01 214.59 82.72"/><rect class="cls-2" x="7.08" y="53.54" width="201.2" height="98.16"/><polyline class="cls-2" points="214.86 82.82 107.69 144.87 0.5 82.82 0.5 206.94 214.86 206.94 214.86 82.82 214.86 206.94"/><polyline class="cls-1" points="214.86 206.94 107.69 144.87 0.5 206.94"/><path class="cls-3" d="M122.26,34a6.07,6.07,0,0,1,0,1.74,7.3,7.3,0,0,1-6.77,5.83c-3.31.23-6.17-2.77-7.78-4.9-1.44,1.9-3.94,4.68-6.76,5A7.25,7.25,0,0,1,93.05,35q0-.24,0-.48a5.67,5.67,0,0,1,2.07-4l12.4-10.85,12.64,10.7A5.76,5.76,0,0,1,122.26,34Z"/></g></g></svg>